<svg xmlns="http://www.w3.org/2000/svg" width="64" height="64" viewBox="0 0 64 64"><path fill="#85ab70" d="M10.1 64c-.2 0-.6 0-1.1-.2-.3 0-.8-.1-1.5-.2H.2c-.2 0-.3-.2-.3-.4s0-.3.1-.5c.3-1.2.6-4 .9-8.1.3-4.2.6-9 .8-14.6.4-9.9.5-17.4.5-22.6v-5.9c0-3-.4-6.2-1.1-9.7v-.7c0-.2 0-.3.1-.4 0-.1.5-.2 1.1-.2C3.4.4 4.5.3 5.6.3c11.4 0 17.6 6.3 18.8 19 0 1.1.1 2.1.1 3.2 0 5.1-1.2 9.5-3.5 13.3-2.4 3.9-6.4 6.1-12 6.5l.2 4c.3 8.6.6 14.1 1.1 16.7 0 .4.1.6.1.8 0 .3-.1.5-.4.5zm-.8-24.8s.4-.2.9-.5c3.2-2.3 5.3-6.1 6.3-11.5.4-2 .6-4 .6-6 0-3.4-.6-6.8-1.7-10.2-.5-1.4-1.1-2.7-1.8-4-1.3-2.2-2.3-3.3-2.8-3.3s-.6 2.6-.9 7.9c-.5 8.6-.7 16.2-.7 22.9s0 4.7.3 4.7zm29.8 22.1c-.3 0-.5-.1-.5-.3s.2-.9.7-2.2c4.7-12.9 8.3-24.9 10.8-35.9.9-4.1 1.6-9.8 2.2-17.2-3.4.5-5.9 1.6-7.4 3.5-1.5 1.8-2.5 4.7-3.1 8.7-.2 1.1-.3 1.6-.4 1.6s-.2-.5-.3-1.5c-.4-4.8-.8-8.8-1.3-12-.2-1.4-.4-2.4-.4-3 15.5-.1 23.4-.2 23.7-.2.6 0 .9 0 .9.2s-.3 1-.8 2.3c-1.8 4.5-3.8 10.8-6.1 18.9l-.9 3.2c-3 10.9-5 20.5-5.8 28.7v1h.3c7-1.6 10.9-6 11.9-13.4 0-.8.3-1.3.5-1.3h.1s.1.2.1.6c0 9.6.1 14.6.4 15.1l.2 1.9c0 .4 0 .6-.1.6h-.5c-2.2-.3-5.1-.4-8.8-.4-6.7 0-11.9.3-15.5 1z"/><path fill="#fbd6db" d="M43 32c-.6 0-3.5.2-5.9 4.1-2.3 3.8-2.4 8.5-2.4 9.5 0-1-.1-5.6-2.4-9.5-2.4-3.9-5.3-4.1-5.9-4.1.6 0 3.5-.2 5.9-4.1 2.3-3.8 2.4-8.5 2.4-9.5 0 1 .1 5.6 2.4 9.5 2.4 3.9 5.3 4.1 5.9 4.1z"/></svg>