<svg height="64" viewBox="0 0 64 64" width="64" xmlns="http://www.w3.org/2000/svg"><path d="m9.6 61.8c-.2 0-.5 0-1-.2-.3 0-.7-.1-1.4-.2h-6.8c-.2 0-.3-.2-.3-.3s0-.3.1-.5c.3-1.2.6-3.7.9-7.6s.5-8.4.7-13.6c.3-9.2.5-16.2.5-21.1v-5.5c0-2.8-.4-5.8-1-9.1v-.6c0-.1 0-.3.1-.4 0-.1.4-.2 1-.2 1.1-.1 2.1-.2 3-.2 10.6 0 16.4 5.9 17.5 17.7 0 1 .1 2 .1 3 0 4.7-1.1 8.8-3.3 12.3-2.3 3.7-6 5.7-11.1 6.1l.2 3.7c.3 8 .6 13.2 1 15.6 0 .3.1.6.1.8 0 .3-.1.5-.4.5zm-.7-23.1s.4-.2.8-.5c3-2.1 4.9-5.7 5.8-10.8.4-1.9.5-3.7.5-5.6 0-3.2-.5-6.4-1.6-9.5-.5-1.3-1-2.5-1.7-3.7-1.2-2.1-2.1-3.1-2.7-3.1s-.6 2.5-.9 7.4c-.5 8-.7 15.1-.7 21.4s0 4.4.3 4.4zm29.5 23.1c-.3 0-.5-.1-.5-.3s.2-.9.7-2.3c4.8-13.1 8.5-25.3 11-36.5.9-4.1 1.7-9.9 2.2-17.4-3.5.5-6 1.7-7.5 3.5s-2.6 4.8-3.1 8.8c-.2 1.1-.3 1.7-.5 1.7s-.2-.5-.3-1.5c-.4-4.9-.8-9-1.3-12.2-.2-1.4-.4-2.4-.4-3.1 15.7-.1 23.7-.2 24.1-.2.6 0 1 0 1 .2s-.3 1-.8 2.3c-1.8 4.6-3.9 11-6.2 19.2l-.9 3.3c-3.1 11.1-5 20.8-5.9 29.2v1h.3c7.1-1.6 11.1-6.1 12.1-13.6 0-.9.3-1.3.5-1.3h.1s.1.2.1.6c0 9.7.1 14.8.4 15.3l.2 1.9c0 .4 0 .6-.1.6h-.5c-2.2-.3-5.2-.5-9-.5-6.9 0-12.1.3-15.7 1z" fill="#85ab70"/><path d="m38 5.5c-.1 0-.8 0-1.4.9-.5.9-.6 1.9-.6 2.2 0-.2 0-1.3-.6-2.2-.5-.9-1.2-.9-1.4-.9.1 0 .8 0 1.4-.9.5-.9.6-1.9.6-2.2 0 .2 0 1.3.6 2.2.5.9 1.2.9 1.4.9zm25.1 33.2c-.3 0-1.6 0-2.7 1.9-1.1 1.8-1.1 3.9-1.1 4.3 0-.5 0-2.6-1.1-4.3-1.1-1.8-2.5-1.9-2.7-1.9.3 0 1.6 0 2.7-1.9 1.1-1.8 1.1-3.9 1.1-4.3 0 .5 0 2.6 1.1 4.3 1.1 1.8 2.4 1.9 2.7 1.9zm-47 15.9c-.2 0-1 0-1.7 1.2-.6 1.1-.7 2.4-.7 2.6 0-.3 0-1.6-.7-2.6-.7-1.1-1.5-1.2-1.7-1.2.2 0 1 0 1.7-1.2.6-1.1.7-2.4.7-2.6 0 .3 0 1.6.7 2.6.7 1.1 1.5 1.2 1.7 1.2zm29-31.1c-.1 0-.6 0-1.1.7-.4.7-.4 1.5-.4 1.7 0-.2 0-1-.4-1.7s-1-.7-1.1-.7c.1 0 .6 0 1.1-.7.4-.7.4-1.5.4-1.7 0 .2 0 1 .4 1.7s1 .7 1.1.7z" fill="#fbd6db"/><path d="m26 41.7c.7-.6 2.4 2.4 3 7.6.3 2.9 1.8 3.9 1.8 3.9-4.8-27.5-.1-41.5-.1-41.5m6.8 20.2s-5 1.8-6.7 21.3" fill="none" stroke="#85ab70" stroke-miterlimit="10" stroke-width="1.5"/><path d="m33.8 51.3-8.5 10c.1.3.4.5.7.5l9-10.5h-1.1zm3.3 0h-1l-9 10.5h1.5l8.3-9.7zm-10.8 0-2.7 3.1.3 1 3.5-4.1zm2.3 0-4.5 5.2.4 1.4 5.6-6.6zm2.7 0-6.6 7.7.3 1.2 7.6-8.9zm1.1 10.5h1.5c.4 0 .8-.3.9-.7l.7-2.9zm-9.5-10.5.5 2 1.7-2zm13.6 2.7-6.7 7.8h1.4l4.7-5.5z" fill="#fdeff1"/><path d="m25.1 51.3-1.7 2 .2 1.1 2.7-3.1zm2.3 0-3.5 4.1.2 1.1 4.5-5.2zm2.7 0-5.6 6.6.2 1.1 6.6-7.7zm2.5 0-7.6 8.9.2.9v.2l8.5-10h-1.2zm2.3 0-9 10.5h1.2l9-10.5zm2 .8-8.3 9.7h1.2l6.7-7.8zm-1 4.2-4.7 5.5h1.2l3.1-3.6z" fill="#b8deff"/><path d="m25.1 37.6s2.2-4 5.9-2.4c3.7 1.7-.6 6.3-.6 6.3s0-4.1-3-2.9 1.2 0 2.5 1.5-.4 5-2.5 5.1c0 0 1-2.5 0-3.6s-.8-.5-.5.4c.4 1.4 1.5 4.4-1.7 5.2-.4 0-2.1.3-2.3-.1s.5-1.8.5-2.5c0-1.6-.3-1.7-.6-1.6s1.4 3.2-.8 5.5-.6.1-.7-.1-.3-.6-.4-1-.3-.2-.4 0c-.2 1.1.2 2.2-2.6 3.6 0 0-1.2.6-1.7 1.3s-.1 0-.2 0c-.9-1.7-2.1-5 3.6-8.5 0 0-.7-1.1-5.4 4.8 0 0-2.4-1.9 3.4-5.6s.1-.5-.1-.5c-1.1 0-2 1.4-3.2 3.2 0 0-3.6-4.5 4.2-5.5 0 0 .6 0 1.1-.5s.4-1-.2-.8-2.7.9-4.5 2.3c0 0-1.6-3 3.3-6.4s2.4-1.1 3.7-.8 2.7 1.1 3.2 3.5z" fill="#15580c"/><path d="m36.8 28s0-2.5 1.5-2.3.7 1 4.6 1.5c0 0 2.2.8 3.9 3.6 0 0-3.7-2.2-5.3-1.5s-.2.4 0 .5c.4.3 1.6.6 4.9.9s1 .2 1.4.5.2.1.3.2c1 1.1 2 3 .4 3.5 0 0-6.1-4.8-6.7-3.5s1.1.6 2.2 1.2c1.7.9 3.7 2.1 4.6 2.4s.7.4.7.8-.5 1.4-2.1 2c0 0 0-3-4.2-4.2s-.8-.2-1.3 0c0 0 2.1 0 5.3 3.3s.2.9 0 1.3-.8.9-1.8 1.2c0 0 1.1-2.4-2.8-3.2 0 0 5.6 4.1-.8 5.1 0 0-.8-1.5-2.4-1.3s-2.1-.4-2.4-2.1.1-2.1.7-3 .3-.6.1-.7c-.5-.2-2.5.9-.5 4.7 0 0-3.5.2-3.7-2.9 0 0 .4-3 2.2-3.6 0 0 1.9-.7-.4-.4s-1.9 4.5-1.9 4.5-4.6-2-2.2-4.1 3.4-1.7 3.8-1.6.1 0 0-.1c-.2-.4-1.3-1.2-5.3.9s-.6 0-.8-.3c-.5-1.2-1.3-4.1 2.2-5.9 0 0 3.7-1.1 5.4 2.6zm-7-17.2s-.7-4.5-4-4-6.1 1.8-5.5 8.6c0 0 1.3-4 6.4-2.8 0 0 .9.4-3.8 1.1-1.1.2-2.1.8-2.6 1.8s.7 3.5 2.5 4.5c0 0-.2-4 2-4.4s.4.2.2.4c-1 1-3.1 3.6-1.8 5.4 0 0 .5.7 1.6.9s1 .2 1 .2-2-3.8.7-5-1.4 1.9-1.3 3.9 1.9 1.5 2.7 2.1.9 1.4.9 1.4 1.9-.5 3.4-1.5 1.1-2.3 0-3-.7-.9-.6-1.2c.2-1 1.5 0 2 1s-.8 2.4-1.1 2.6.6-.3 1.5-.7c1.5-.8 1.6-2.8.1-3.7s-2.1-1.4-2.2-2.1c-.3-1.5 5.2 2.7 3 4.9s.8-.6 1.9-1.5.7-2-.3-2.5-3.1-1.5-2.9-2c.7-1.8 4.8 1.8 4.3 3.2s0 .1 0 0c.6-.6 2.2-2.2.7-3.5s-5.3-.8-5.5-1.6 2.2-1.2 5.4 1.5c0 0 .8-3.8-3.2-5.3-4.9-1.9-5.8 1.3-5.8 1.3z" fill="#15580c"/><rect fill="#b8deff" height="2.9" rx=".9" width="16.2" x="21.9" y="49.5"/></svg>