<svg height=".5in" viewBox="0 0 36.2 36" width=".5in" xmlns="http://www.w3.org/2000/svg"><g fill="#bbdcf4"><path d="m18.1.2c-9.8 0-17.8 8-17.8 17.8s8 17.8 17.8 17.8 17.8-8 17.8-17.8-8-17.8-17.8-17.8zm10.8 22.2c0 1.2-.2 1.9-.5 2.6s-.6 1.3-1.3 1.9c-.6.6-1.2 1-1.9 1.3s-1.5.5-2.6.5c-1.2 0-1.5 0-4.5 0s-3.3 0-4.5 0-1.9-.2-2.6-.5-1.3-.6-1.9-1.3c-.6-.6-1-1.2-1.3-1.9s-.5-1.5-.5-2.6c0-1.2 0-1.5 0-4.5s0-3.3 0-4.5.2-1.9.5-2.6.6-1.3 1.3-1.9c.6-.6 1.2-1 1.9-1.3s1.5-.5 2.6-.5h4.5s3.3 0 4.5 0 1.9.2 2.6.5 1.3.6 1.9 1.3c.6.6 1 1.2 1.3 1.9s.5 1.5.5 2.6v4.5s0 3.3 0 4.5z"/><path d="m26.6 11.6c-.2-.5-.4-.9-.8-1.2-.4-.4-.7-.6-1.2-.8-.4-.1-1-.3-2-.4-1.1 0-1.5 0-4.4 0s-3.2 0-4.4 0c-1.1 0-1.6.2-2 .4-.5.2-.9.4-1.2.8-.4.4-.6.7-.8 1.2-.1.4-.3 1-.4 2v4.4s0 3.2 0 4.4c0 1.1.2 1.6.4 2 .2.5.4.9.8 1.2.4.4.7.6 1.2.8.4.1 1 .3 2 .4h4.4s3.2 0 4.4 0c1.1 0 1.6-.2 2-.4.5-.2.9-.4 1.2-.8s.6-.7.8-1.2c.1-.4.3-1 .4-2 0-1.1 0-1.5 0-4.4s0-3.2 0-4.4c0-1.1-.2-1.6-.4-2zm-8.5 12c-3.1 0-5.6-2.5-5.6-5.6s2.5-5.6 5.6-5.6 5.6 2.5 5.6 5.6-2.5 5.6-5.6 5.6zm5.8-10.1c-.7 0-1.3-.6-1.3-1.3s.6-1.3 1.3-1.3 1.3.6 1.3 1.3-.6 1.3-1.3 1.3z"/><path d="m18.1 14.4c-2 0-3.6 1.6-3.6 3.6s1.6 3.6 3.6 3.6 3.6-1.6 3.6-3.6-1.6-3.6-3.6-3.6z"/></g></svg>