<svg xmlns="http://www.w3.org/2000/svg" width="256" height="240.9" viewBox="0 0 256 240.9"><path fill="#85ab70" d="M38.4 239.7c-.8 0-2.1-.3-3.9-.9-1-.3-2.8-.5-5.5-.7-2.6-.2-7.9-.2-15.9-.2-3.2-.1-5.7-.2-7.4-.2s-2.9-.1-3.6-.3c-.7-.2-1.1-.7-1.1-1.4s.2-1.3.5-2c1.1-4.6 2.3-14.7 3.5-30.2 1.2-15.5 2.2-33.6 2.9-54.3 1.3-36.8 2-64.8 2-84.2s-.1-11-.3-22.1C9.4 32.1 8 20 5.5 7c-.2-1.1-.3-2-.3-2.6s.2-1.3.5-1.7c.4-.4 1.7-.7 4.2-.9 4.2-.4 8.3-.6 12.1-.6 42.3 0 65.6 23.6 70 70.7.3 4 .5 8 .5 11.8 0 18.9-4.3 35.3-13 49.4-9.1 14.6-23.9 22.8-44.5 24.4l.8 15c1 31.9 2.3 52.7 3.9 62.3.3 1.3.5 2.3.5 3 0 1.2-.5 1.8-1.5 1.8zm-2.9-92.3c.3 0 1.4-.6 3.3-1.8 11.8-8.5 19.6-22.8 23.3-43 1.4-7.5 2.1-14.9 2.1-22.3 0-12.7-2.1-25.4-6.2-38-1.8-5.2-4.1-10.1-6.8-14.8-4.9-8.3-8.5-12.4-10.6-12.4s-2.4 9.8-3.5 29.5c-1.8 32-2.7 60.5-2.7 85.4s.4 17.4 1.1 17.4zm118.3 92.2c-1.3 0-2-.4-2-1.3s.9-3.8 2.8-9.1c19.3-52.5 33.9-101.2 43.9-146 3.6-16.5 6.6-39.8 8.9-69.7-14 2-24 6.7-30.2 14-6.1 7.4-10.3 19.1-12.5 35.2-.8 4.4-1.4 6.6-1.8 6.6s-1-2-1.3-6.1c-1.5-19.6-3.3-35.8-5.3-48.7-1-5.5-1.5-9.6-1.5-12.4 62.8-.4 94.9-.7 96.3-.8 2.5 0 3.8.3 3.8 1 0 1-1.1 4.1-3.3 9.3-7.4 18.3-15.6 43.9-24.6 77l-3.6 13.1c-12.3 44.3-20.2 83.2-23.5 116.8l-.2 3.1c0 .7.1 1 .3 1h1.2c28.3-6.4 44.4-24.5 48.2-54.4.3-3.4 1-5.1 2.1-5.1l.5-.2c.3 0 .5.9.5 2.6 0 38.9.5 59.3 1.5 61.3l.7 7.8c0 1.5-.2 2.4-.5 2.6-.3.2-1 .2-2 .2-8.8-1.2-20.8-1.8-35.8-1.8-27.4 0-48.4 1.4-62.8 4.1z"/><path fill="#fbd6db" d="M151.8 14.3c-.5 0-3.2.2-5.4 3.8-2.1 3.5-2.2 7.8-2.2 8.7 0-.9-.1-5.2-2.2-8.7-2.2-3.6-4.9-3.8-5.4-3.8.5 0 3.2-.2 5.4-3.8 2.1-3.5 2.2-7.8 2.2-8.7 0 .9.1 5.2 2.2 8.7 2.2 3.6 4.9 3.8 5.4 3.8zm100.7 133.1c-1.1 0-6.5.3-10.9 7.6-4.2 7-4.4 15.6-4.4 17.4 0-1.8-.2-10.4-4.4-17.4-4.4-7.3-9.8-7.6-10.9-7.6 1.1 0 6.5-.3 10.9-7.6 4.2-7 4.4-15.6 4.4-17.4 0 1.8.2 10.4 4.4 17.4 4.4 7.3 9.8 7.6 10.9 7.6zM64.3 210.7c-.6 0-4 .2-6.6 4.6-2.6 4.3-2.7 9.5-2.7 10.6 0-1.1-.1-6.3-2.7-10.6-2.7-4.4-6-4.6-6.6-4.6.6 0 4-.2 6.6-4.6 2.6-4.3 2.7-9.5 2.7-10.6 0 1.1.1 6.3 2.7 10.6 2.7 4.4 6 4.6 6.6 4.6zm116-124.1c-.4 0-2.6.1-4.3 3-1.7 2.8-1.7 6.1-1.7 6.8 0-.7 0-4.1-1.7-6.8-1.7-2.9-3.8-3-4.3-3 .4 0 2.6-.1 4.3-3 1.7-2.8 1.7-6.1 1.7-6.8 0 .7 0 4.1 1.7 6.8 1.7 2.9 3.8 3 4.3 3z"/><path fill="none" stroke="#85ab70" stroke-miterlimit="10" stroke-width="1.5" d="M103.9 159.2c2.9-2.4 9.6 9.7 12 30.5 1.4 11.8 7.3 15.7 7.3 15.7-19.4-110.1-.5-165.9-.5-165.9m27.3 80.7s-19.9 7.2-26.7 85.3"/><path fill="#fdeff1" d="M135.2 197.6l-34.1 39.9c.5 1.1 1.5 1.9 2.7 2.1l36-42.1h-4.6zm13.3 0h-3.9l-36 42.1h5.8l33.3-38.9.8-3.2zm-43.4 0l-10.6 12.3 1 4.2 14.2-16.5h-4.6zm9.4 0l-17.9 20.9 1.2 5.4 22.5-26.3h-5.8zm10.6 0l-26.3 30.7 1.2 4.9 30.4-35.6h-5.3zm4.6 42.1h5.9c1.7 0 3.3-1.2 3.6-2.9l2.7-11.4-12.2 14.3zm-38.1-42.1l1.9 7.9 6.8-7.9h-8.7zm54.3 10.9l-26.7 31.2h5.7l18.8-22 2.2-9.2z"/><path fill="#b8deff" d="M100.3 197.6l-6.8 7.9 1 4.4 10.6-12.3h-4.8zm9.4 0l-14.2 16.5 1.1 4.4 17.9-20.9h-4.8zm10.6 0l-22.5 26.3 1 4.4 26.3-30.7h-4.8zm10.1 0L100 233.2l.8 3.6c0 .2.1.5.2.7l34.1-39.9h-4.8zm9.4 0l-36 42.1h4.8l36-42.1h-4.8zm7.9 3.2l-33.3 38.9h4.8l26.7-31.2 1.8-7.7zm-4 16.9l-18.8 22h4.8l12.2-14.3 1.8-7.7z"/><path fill="#15580c" d="M100.6 142.8s8.9-16.1 23.5-9.5c14.7 6.7-2.3 25.4-2.3 25.4s-.2-16.2-11.8-11.6c-9.7 3.9 4.7.3 10.2 6 3.7 3.9-1.6 20-10.2 20.4 0 0 4.1-10.1-.4-14.3-.4-.4-3.2-1.8-2 1.8 1.7 5.5 6.1 17.8-6.9 20.8-1.7.4-8.6 1.1-9.2-.5s2-7.2 2.2-10.2c.3-6.5-1.3-6.8-2.5-6.3s5.8 12.8-3.2 21.8c-.8.8-2.3.6-2.8-.5-.5-1-1.2-2.4-1.7-3.9s-1.3-.6-1.4.1c-.7 4.6.7 8.6-10.3 14.6 0 0-5 2.3-6.7 5.1s-.5.2-.6 0c-3.7-6.9-8.6-20.1 14.5-34.1 0 0-2.8-4.2-21.4 19.3 0 0-9.6-7.7 13.4-22.4.9-.6.5-1.9-.6-1.9-4.5 0-7.8 5.8-12.6 12.8 0 0-14.4-18.1 16.9-22.2.3 0 2.5 0 4.3-2.1 1.7-2 1.8-3.9-.8-3.2-2.8.8-10.7 3.7-18.1 9.3 0 0-6.4-11.9 13.1-25.7 4.3-3 9.6-4.3 14.7-3.3 5.2 1.1 10.9 4.6 12.7 14.1z"/><path fill="#15580c" d="M147.4 104.5s-.1-10.1 6.1-9.2c6.3.9 2.9 3.9 18.5 6 0 0 8.9 3.2 15.8 14.5 0 0-14.9-8.8-21.4-6.1-.8.3-.8 1.4-.1 1.8 1.7 1 6.5 2.5 19.7 3.7 2 .2 4 .9 5.6 2.1s.7.6 1 .9c4.2 4.4 8.2 12.1 1.7 13.8 0 0-24.3-19.1-26.6-14.2-.8 1.7 4.4 2.6 9 4.9 6.9 3.5 14.8 8.3 18.4 9.6 1.5.5 2.7 1.8 2.8 3.3.2 2-1.9 5.5-8.5 7.9 0 0 0-12.1-16.7-16.7-2.1-.6-3.2-.7-5.1.3 0 0 8.6.2 21.2 13.2 1.2 1.2.8 3.7-.1 5.1-1.1 1.7-3.3 3.8-7.2 4.8 0 0 4.5-9.6-11.2-12.9 0 0 22.3 16.3-3.1 20.3 0 0-3-6.2-9.5-5.3-4.8.7-8.4-1.6-9.5-8.4-.7-4.2.4-8.5 2.8-12 .8-1.2 1.2-2.3.4-2.6-2-.9-10.2 3.7-2 18.7 0 0-13.9.8-14.7-11.6 0 0 1.6-12 8.8-14.4 0 0 7.6-2.7-1.7-1.7s-7.4 18.1-7.4 18.1-18.5-7.8-8.6-16.6c8.1-7.1 13.5-6.7 15.2-6.2.2 0 .4-.2.3-.4-1-1.5-5.1-4.9-21.1 3.6-1.1.6-2.5.2-3-1-2.1-4.8-5.2-16.3 8.9-23.8 0 0 14.7-4.3 21.4 10.4zm-28.3-68.8s-2.8-18.1-16-16.1c-13.2 1.9-24.4 7-21.9 34.4 0 0 5.1-16.2 25.6-11 0 0 3.6 1.7-15.3 4.4-4.4.6-8.5 3.2-10.6 7.1-2 3.8 2.6 13.9 10.2 18 0 0-.8-15.9 8-17.6.9-.2 1.5.9.9 1.5-3.8 4-12.6 14.3-7.2 21.8 0 0 1.8 2.6 6.6 3.4 4.8.8 3.8 1 3.8 1s-8-15 3-20.1-5.7 7.6-5.2 15.7 7.5 5.8 10.8 8.2c3.3 2.4 3.8 5.6 3.8 5.6s7.7-1.9 13.4-5.8c4.2-2.8 4.4-9.1.3-12-2.4-1.7-2.9-3.6-2.6-4.9.9-3.8 5.8.3 8.1 4s-3.4 9.8-4.2 10.3 2.4-1.1 6-2.9c5.9-3 6.2-11.4.6-14.8-4.5-2.7-8.4-5.7-8.8-8.2-1-6 21 10.8 11.8 19.7-1.3 1.3 3.1-2.3 7.5-5.9s2.8-8.1-1.1-10c-5.4-2.7-12.4-6.2-11.7-8 2.9-7.1 19.1 7 17.4 12.8s.2.4.4.3c2.5-2.2 8.7-8.6 3-14.2-7.1-6.8-21-3.2-22.1-6.6-1.1-3.3 9-4.9 21.5 6 0 0 3-15-12.9-21.1-19.7-7.5-23 5.1-23 5.1z"/><rect width="64.8" height="11.6" x="87.7" y="190.5" fill="#b8deff" rx="3.5" ry="3.5"/></svg>