<svg xmlns="http://www.w3.org/2000/svg" width="256" height="76.1" viewBox="0 0 256 76.1"><path fill="#fbd4db" d="M64 33h-3.8v-1.8c.1-2 .2-4.6.2-7.8v-4c0-2.4-.1-4.7-.3-6.8v-.5c0-.2-.1-.3-.2-.3-1.6.5-2.7 2.1-3.3 4.8 0 .5-.2.7-.3.7v-6.7h11.5v.7c-.1 1.2-.2 2.1-.2 2.5v3.8s0-.3-.2-.7c-.3-1.3-.7-2.4-1.3-3.3s-1.2-1.5-1.9-1.8 0 .2 0 .5v1c-.1 1.5-.2 3-.2 4.5s0 3.6.2 6.2c.2 3.9.5 6.8.8 8.7v.4c0 .1-.1.2-.3.2zm15.2.5h-.4c-.3-.2-1-.2-2-.2h-1.3v-.4c.1-1 .2-3.1.2-6.3V23c-.2 0-.8 0-1.7.1h-1.2v.5c0 .7 0 1.6.2 2.9.2 2.2.3 3.7.5 4.6v.2c0 .1-.1.2-.3.2h-.3c-.3 0-.9 0-1.9-.1h-1.1c-.2 0-.3 0-.3-.2V31c.2-.7.4-3.4.4-8.2v-6c0-2.2-.1-3.8-.3-5v-.4c0-.1 0-.2.2-.2h3.3s.1 0 .1.1c-.3 2.2-.5 5.2-.5 9.1v1.5h2.9c-.1-2-.2-3.9-.2-5.7 0-3.1-.2-5-.5-5.8 0-.3-.1-.5-.1-.6s0-.1.3-.1h3.6c.1 0 .2 0 .2.2s0 .3-.1.6c-.2.9-.3 2.4-.3 4.4s0 4.6.3 7.7l.2 2.8c.2 3.9.4 6.3.6 7.1 0 .4.1.6.1.7 0 .1 0 .2-.1.2zm1.9-.8v-.6c.1-.7.3-2.2.4-4.4.2-3.1.2-6.3.2-9.4v-3.2c0-1.5-.3-2.8-.6-3.8 0-.2-.1-.4-.1-.5s.1-.2.3-.2H90v.7c-.1.9-.2 1.7-.2 2.6s0 1.1-.2 1.1-.2-.1-.3-.4c-.3-.7-.9-1.4-1.7-1.9-.8-.6-1.7-.9-2.8-1 0 .7-.2 2.2-.3 4.4 0 1.9-.1 3.7-.1 5.3h.4c1-.2 1.8-.6 2.3-1.3.1-.2.2-.3.2-.3.1 0 .2 1.1.2 3.2s0 1-.1 1-.2 0-.3-.2c-.6-.6-1.5-1-2.7-1.2v1.2c.2 3.8.3 6.3.4 7.5h.5c2.1-.1 3.4-1.2 3.9-3.2.1-.4.2-.7.3-.7s.1.3.1.9c0 1.2.1 2.4.3 3.8v.2h-2.6c-1.3 0-3.3.1-6 .4h-.2z"/><path fill="#85ab70" d="M62.1 75.7c-.1 0-.3 0-.6-.1-.2 0-.5 0-.9-.1h-4.3c-.1 0-.2-.1-.2-.2V75c.2-.7.4-2.3.6-4.8s.3-5.4.5-8.7c.2-5.9.3-10.3.3-13.4v-3.5c0-1.7-.2-3.7-.7-5.8v-.7c0-.1.3-.1.7-.1h1.9c6.7 0 10.5 3.8 11.2 11.3v1.9c0 3-.7 5.6-2.1 7.9-1.4 2.3-3.8 3.6-7.1 3.9v2.4c.3 5.1.5 8.4.7 9.9v.5c0 .2 0 .3-.2.3zM61.6 61s.2 0 .5-.3c1.9-1.4 3.1-3.6 3.7-6.9.2-1.2.3-2.4.3-3.5 0-2-.3-4-1-6.1-.3-.8-.7-1.6-1.1-2.4-.8-1.3-1.4-2-1.7-2s-.4 1.6-.6 4.7c-.3 5.1-.4 9.6-.4 13.6s0 2.8.2 2.8zM87 74.4h-.3c-.6 0-2.9-.1-6.9-.1h-6.3V74c0-.2 0-.5.1-.8.4-2.2.6-5.9.6-11.2s0-7.1-.1-12c0-2.9-.1-5-.2-6.3 0-1.3-.3-2.4-.5-3.3-.1-.5-.2-.8-.2-1s.2-.1.6-.1h1.9c1.9 0 3.1 0 3.6-.2h.5c.1 0 .2 0 .2.3s-.1.8-.4 1.5c-.3 1.3-.6 2.5-.7 3.7-.2 2.2-.3 5.5-.3 9.9 0 6.2.2 11.6.7 16.2.1 1 .2 1.6.2 1.7s.1.1.4.1c.5 0 1.2-.2 1.9-.5 2.4-1 4-2.9 4.8-5.6.2-.6.4-.9.4-.9s.1.2.1.6v.5c-.1.7-.1 1.6-.1 2.8s0 2.2.1 3c0 .8.1 1.3.1 1.6s0 .5-.1.5zm20.8.5h-.6c-1-.3-2.4-.4-4.1-.5h-1.2c-.2 0-.3-.3-.3-.7v-.2c0-1 0-2-.2-3.1v-1l-.5-4.2h-4.7c-.1 2-.2 3.9-.2 5.6v3.6c0 .2 0 .3-.3.3s-.7 0-1.5-.2H94c-1.5-.3-2.6-.4-3.3-.4s-1 0-1-.2 0-.3.1-.6c.6-1.8 1.3-4.8 2.1-9.3.7-3.9 1.3-7.2 1.9-9.9.3-1.6.6-2.8.7-3.5l.4-2.3c.5-2.6.7-5 .7-7v-2.4h5.2c.7.1 1.3.2 1.6.2.3 0 .5.1.5.3v.3c-.1.5-.2 1.3-.2 2.2 0 1.8.3 5 .8 9.4.6 4.5 1.6 10.4 3 17.7.2 1.1.5 2.2.8 3.3.3 1.2.6 2 .8 2.5 0 .2.1.3.1.4 0 .1 0 .2-.3.2zm-9.4-11.8h2.2c0-.2-.1-1.2-.3-3-.9-7.5-1.5-11.2-1.6-11.2s-.4 1.3-.9 4c-1 5.4-1.5 8.8-1.5 10.2h2.1zm19.4 11.4c-.2 0-.4 0-.7-.1h-6c0-.1 0-.7.2-1.6.3-2.2.4-5.8.4-10.6s0-3.9-.1-5.6c-.4-9.9-.8-15.4-1.2-16.6v-.5c0-.1.8-.2 2.2-.2 1.5 0 2.4 0 2.8-.1h.8s.1.3.1.7c.2 2.7 1.1 6.4 2.5 11.1 1.5 4.7 3.3 9.6 5.6 14.9.2 0 .4-3 .4-9s-.1-9.2-.3-13.9v-3.4c0-.4.2-.5.6-.5h.4c.6 0 1.2.1 1.9.1h3c.1 0 .2 0 .2.2v.5c0 .3 0 .6-.1.9-.5 4.1-.8 9-.8 14.5s0 3.6.1 7.6c0 4 .5 7.7 1.3 11.2 0 .3.1.5.1.6s0 .2-.2.2h-.4c-1.4-.3-3.1-.4-5.2-.4s-1.8 0-1.9-.2c0 0-.1-.3-.1-.5 0-.5-.2-1.5-.6-2.8-.6-2.1-1.6-5.1-2.9-9.1l-2.1-6.5-1.2-3.5v4.9c0 7.1.5 12.8 1.6 17 .1.5.2.8.2 1s0 .3-.3.3zm28.1.2h-6s-.1-.1-.1-.3V74c0-.2 0-.4.1-.9 0-.4 0-.8.1-1.3.2-3.1.3-7.2.3-12.4v-6.3c0-3.8-.2-7.4-.5-10.8v-.8c-.1-.4-.2-.5-.3-.5h-.2c-2.6.7-4.3 3.3-5.2 7.6-.1.7-.3 1.1-.5 1.1h-.1c-.1 0 0-.4 0-1.1V39s1.7 0 5.2-.1h13V40c-.2 1.9-.3 3.3-.4 4.1v6.1h-.2s-.2-.4-.3-1c-.4-2-1.1-3.8-2.1-5.3-.9-1.5-2-2.4-3-2.8h-.3s-.1.3-.1.8v1.7c-.2 2.4-.3 4.8-.3 7.1s.1 5.8.4 9.8c.3 6.3.8 10.9 1.3 13.9 0 .3.1.5.1.7s-.2.3-.6.3zm20.6-.6c-.2 0-.3 0-.3-.2s.1-.6.4-1.3c2.8-7.7 5-14.8 6.4-21.3.5-2.4 1-5.8 1.3-10.2-2 .3-3.5 1-4.4 2.1-.9 1.1-1.5 2.8-1.8 5.1-.1.6-.2 1-.3 1s-.1-.3-.2-.9c-.2-2.9-.5-5.2-.8-7.1-.1-.8-.2-1.4-.2-1.8 9.2 0 13.9-.1 14.1-.1.4 0 .6 0 .6.1s-.2.6-.5 1.4c-1.1 2.7-2.3 6.4-3.6 11.3l-.5 1.9c-1.8 6.5-2.9 12.2-3.4 17.1v.6h.2c4.1-.9 6.5-3.6 7-7.9 0-.5.2-.7.3-.7s0 .1 0 .4c0 5.7 0 8.7.2 9v1.5h-.3c-1.3-.2-3-.3-5.2-.3-4 0-7.1.2-9.2.6zm28.4.6h-.1c-3.4 0-6.3-2-8.6-6.1-1.9-3.5-2.8-7.5-2.8-12s.6-6.5 1.7-9.7c1.2-3.2 3.1-5.6 5.9-7.3 1.4-.7 2.7-1.1 4-1.1 3.5 0 6.5 2.3 8.8 6.9 1.7 3.3 2.5 7.1 2.5 11.2s-.6 6.5-1.9 9.8c-1.2 2.7-2.9 4.9-5 6.5-1.6 1.1-3.1 1.7-4.4 1.8zm0-2.1c.4 0 .8 0 1.2-.2 1.5-.8 2.7-2.5 3.6-5 1.1-3.1 1.6-6.8 1.6-10.9 0-6.5-1.2-11.3-3.6-14.4-.9-1.1-1.9-1.6-2.8-1.6-2.8 0-4.7 3.3-5.9 10-.3 2.1-.5 4.1-.5 6.1 0 5.8 1 10.4 3.1 13.7 1 1.6 2 2.3 3.2 2.3zm21.1 1.9c-.2 0-.4 0-.7-.1h-6c0-.1 0-.7.2-1.6.3-2.2.4-5.8.4-10.6s0-3.9-.1-5.6c-.4-9.9-.8-15.4-1.2-16.6v-.5c0-.1.8-.2 2.2-.2 1.5 0 2.4 0 2.8-.1h.8s.1.3.1.7c.2 2.7 1.1 6.4 2.5 11.1 1.5 4.7 3.3 9.6 5.6 14.9.2 0 .4-3 .4-9s-.1-9.2-.3-13.9v-3.4c0-.4.2-.5.6-.5h.4c.6 0 1.2.1 1.9.1h3c.1 0 .2 0 .2.2v.5c0 .3 0 .6-.1.9-.5 4.1-.8 9-.8 14.5s0 3.6.1 7.6c0 4 .5 7.7 1.3 11.2 0 .3.1.5.1.6s0 .2-.2.2h-.4c-1.4-.3-3.1-.4-5.2-.4s-1.8 0-1.9-.2c0 0-.1-.3-.1-.5 0-.5-.2-1.5-.6-2.8-.6-2.1-1.6-5.1-2.9-9.1l-2.1-6.5-1.2-3.5v4.9c0 7.1.5 12.8 1.6 17 .1.5.2.8.2 1s0 .3-.3.3zm16-.3s-.1 0-.1-.2v-.6c.2-1.1.4-3.5.6-7 .2-5 .4-10 .4-15v-5.1c-.1-2.4-.5-4.5-1-6.1-.1-.4-.2-.6-.2-.8s.2-.2.5-.2h14s.1.2.1.3 0 .4-.1.7c-.2 1.4-.3 2.8-.3 4.1s0 1.7-.3 1.7-.3-.2-.5-.7c-.5-1.2-1.4-2.2-2.7-3.1-1.3-.9-2.8-1.4-4.4-1.6-.1 1.1-.3 3.5-.4 7.1-.1 3-.2 5.8-.2 8.4h.6c1.7-.3 2.9-.9 3.7-2.1.2-.3.3-.4.4-.4.2 0 .3 1.7.3 5.1s0 1.5-.2 1.5-.3-.1-.5-.4c-1-1-2.5-1.6-4.4-1.9v1.9c.2 6.1.4 10.1.7 11.9h.7c3.3-.2 5.4-1.9 6.2-5.1.2-.7.3-1.1.5-1.1s.2.5.2 1.4c0 1.8.2 3.8.5 6v.3c0 .1-.2 0-.5 0-1.3 0-2.5-.1-3.6-.1-2.1 0-5.3.2-9.6.7h-.3z"/><path fill="#fbd6db" d="M52 7c-.3 0-1.8 0-3.1 2.1-1.2 2-1.2 4.4-1.2 4.9 0-.5 0-2.9-1.2-4.9-1.2-2-2.8-2.1-3.1-2.1.3 0 1.8 0 3.1-2.1 1.2-2 1.2-4.4 1.2-4.9 0 .5 0 2.9 1.2 4.9C50.1 6.9 51.7 7 52 7zm204 26.3c-.3 0-1.8 0-3.1 2.1-1.2 2-1.2 4.4-1.2 4.9 0-.5 0-2.9-1.2-4.9-1.2-2-2.8-2.1-3.1-2.1.3 0 1.8 0 3.1-2.1 1.2-2 1.2-4.4 1.2-4.9 0 .5 0 2.9 1.2 4.9 1.2 2 2.8 2.1 3.1 2.1zm-91.5 22.8c-.5 0-2.8.1-4.7 3.3-1.8 3.1-1.9 6.8-1.9 7.6 0-.8 0-4.5-1.9-7.6-1.9-3.2-4.3-3.3-4.7-3.3.5 0 2.8-.1 4.7-3.3 1.8-3.1 1.9-6.8 1.9-7.6 0 .8 0 4.5 1.9 7.6 1.9 3.2 4.3 3.3 4.7 3.3zM13.3 17.3c-.5 0-2.8.1-4.7 3.3-1.8 3.1-1.9 6.8-1.9 7.6 0-.8 0-4.5-1.9-7.6C2.9 17.4.5 17.3.1 17.3c.5 0 2.8-.1 4.7-3.3 1.8-3.1 1.9-6.8 1.9-7.6 0 .8 0 4.5 1.9 7.6 1.9 3.2 4.3 3.3 4.7 3.3z"/><path fill="none" stroke="#85ab70" stroke-miterlimit="10" stroke-width="2" d="M23.9 48.1c1-.8 3.2 3.2 4 10.1s2.4 5.2 2.4 5.2c-6.4-36.6-.2-55.1-.2-55.1m9.1 26.8s-6.6 2.4-8.9 28.4"/><path fill="#fdeff1" d="M34.3 60.8L23 74.1c.2.4.5.6.9.7l12-14h-1.5zm4.4 0h-1.2l-12 14h1.9l11.1-12.9.2-1.1zm-14.4 0l-3.5 4.1.3 1.4 4.7-5.5h-1.5zm3.1 0l-5.9 7 .4 1.8 7.5-8.8h-2zm3.6 0L22.3 71l.3 1.7 10.2-11.9H31zm1.5 14h2c.6 0 1.1-.4 1.2-1l.9-3.8-4.1 4.8zm-12.6-14l.6 2.7 2.2-2.7h-2.8zm18 3.7L29 74.8h1.9l6.3-7.3.7-3z"/><path fill="#b8deff" d="M22.7 60.8l-2.2 2.7.3 1.4 3.5-4.1h-1.6zm3.1 0l-4.7 5.5.4 1.5 5.9-7h-1.6zm3.6 0l-7.5 8.8.4 1.4L31 60.8h-1.6zm3.4 0L22.7 72.6l.3 1.2v.2l11.3-13.3h-1.6zm3.1 0l-12 14h1.6l12-14h-1.6zm2.6 1.1L27.4 74.8H29l8.9-10.3.6-2.6zm-1.3 5.6l-6.3 7.3h1.6l4.1-4.7.6-2.6z"/><path fill="#15580c" d="M22.8 42.6s2.9-5.4 7.8-3.2-.8 8.4-.8 8.4 0-5.4-3.9-3.8 1.6.1 3.4 2c1.2 1.3-.5 6.6-3.4 6.8 0 0 1.4-3.3-.1-4.8s-1.1-.6-.7.6c.6 1.8 2 5.9-2.3 6.9s-2.8.4-3-.2.7-2.4.7-3.4c.1-2.1-.4-2.3-.8-2.1s1.9 4.3-1.1 7.3-.8.2-.9-.2-.4-.8-.6-1.3-.4-.2-.5 0c-.2 1.5.2 2.9-3.4 4.8 0 0-1.6.8-2.2 1.7s-.2 0-.2 0c-1.2-2.3-2.8-6.7 4.8-11.3 0 0-.9-1.4-7.1 6.4 0 0-3.2-2.6 4.5-7.5.3-.2.2-.6-.2-.6-1.5 0-2.6 1.9-4.2 4.3 0 0-4.8-6 5.6-7.4 0 0 .8 0 1.4-.7s.6-1.3-.3-1-3.6 1.2-6 3.1c0 0-2.1-4 4.4-8.5s3.2-1.4 4.9-1.1 3.6 1.5 4.2 4.7z"/><path fill="#15580c" d="M38.4 29.9s0-3.4 2-3 1 1.3 6.1 2c0 0 2.9 1.1 5.2 4.8 0 0-5-2.9-7.1-2s-.3.5 0 .6c.6.3 2.2.8 6.5 1.2s1.3.3 1.9.7.2.2.3.3c1.4 1.5 2.7 4 .6 4.6 0 0-8.1-6.3-8.8-4.7s1.5.9 3 1.6c2.3 1.2 4.9 2.8 6.1 3.2s.9.6.9 1.1-.6 1.8-2.8 2.6c0 0 0-4-5.5-5.6-.7-.2-1.1-.2-1.7 0 0 0 2.9 0 7 4.4s.3 1.2 0 1.7-1.1 1.2-2.4 1.6c0 0 1.5-3.2-3.7-4.3 0 0 7.4 5.4-1 6.8 0 0-1-2.1-3.2-1.8s-2.8-.5-3.2-2.8.1-2.8.9-4 .4-.7.1-.9c-.7-.3-3.4 1.2-.7 6.2 0 0-4.6.3-4.9-3.8 0 0 .5-4 2.9-4.8 0 0 2.5-.9-.6-.6-3.1.3-2.5 6-2.5 6s-6.2-2.6-2.9-5.5c2.7-2.4 4.5-2.2 5.1-2.1s.1 0 0-.1c-.3-.5-1.7-1.6-7 1.2s-.8 0-1-.3c-.7-1.6-1.7-5.4 3-7.9 0 0 4.9-1.4 7.1 3.5zM29 7s-.9-6-5.3-5.4-8.1 2.3-7.3 11.4c0 0 1.7-5.4 8.5-3.7 0 0 1.2.6-5.1 1.5-1.5.2-2.8 1.1-3.5 2.4s.9 4.6 3.4 6c0 0-.3-5.3 2.7-5.9s.5.3.3.5c-1.3 1.3-4.2 4.7-2.4 7.2 0 0 .6.9 2.2 1.1s1.3.3 1.3.3-2.7-5 1-6.7c1.7-.8-1.9 2.5-1.7 5.2s2.5 1.9 3.6 2.7 1.2 1.9 1.2 1.9 2.6-.6 4.5-1.9 1.5-3 0-4-1-1.2-.9-1.6c.3-1.3 1.9.1 2.7 1.3s-1.1 3.3-1.4 3.4.8-.4 2-1c2-1 2.1-3.8.2-4.9s-2.8-1.9-2.9-2.7c-.3-2 7 3.6 3.9 6.6s1-.8 2.5-2 .9-2.7-.4-3.3-4.1-2-3.9-2.7c1-2.4 6.3 2.3 5.8 4.3s0 .1.1 0c.8-.7 2.9-2.9 1-4.7s-7-1.1-7.4-2.2 3-1.6 7.1 2c0 0 1-5-4.3-7s-7.7 1.7-7.7 1.7z"/><rect width="21.5" height="3.9" x="18.5" y="58.5" fill="#b8deff" rx="1.2" ry="1.2"/></svg>