<svg height="76.1" viewBox="0 0 256 76.1" width="256" xmlns="http://www.w3.org/2000/svg"><path d="m64 33c-.8 0-1.4 0-1.7 0s-.7 0-1.1 0h-.6c-.2 0-.3 0-.4 0 0 0 0 0 0-.2s0-.2 0-.3 0-.3 0-.5c0-.3 0-.5 0-.8.1-2 .2-4.6.2-7.8v-4c0-2.4-.1-4.7-.3-6.8v-.5c0-.2-.1-.3-.2-.3s0 0 0 0c-1.6.5-2.7 2.1-3.3 4.8 0 .5-.2.7-.3.7s0 0 0 0 0-.2 0-.7c0-1.6 0-2.9 0-4v-1.4c0-.4 0-.6 0-.6h3.3 2.7 2 1.4 1.1 1v.7c-.1 1.2-.2 2.1-.2 2.5v2.9s0 .8 0 .9 0 0 0 0 0-.3-.2-.7c-.3-1.3-.7-2.4-1.3-3.3s-1.2-1.5-1.9-1.8 0 0 0 0 0 .2 0 .5v1c-.1 1.5-.2 3-.2 4.5s0 3.6.2 6.2c.2 3.9.5 6.8.8 8.7v.4s-.1.2-.3.2z" fill="#fbd4db"/><path d="m79.2 33.5h-.4c-.3-.2-1-.2-2-.2s-.7 0-.9 0h-.2c-.1 0-.2 0-.2 0s0-.1 0-.2v-.2c.1-1 .2-3.1.2-6.3s0-2.6 0-3.6c-.2 0-.8 0-1.7.1-.8 0-1.2 0-1.2 0v.5c0 .7 0 1.6.2 2.9.2 2.2.3 3.7.5 4.6v.2c0 .1-.1.2-.3.2h-.3c-.3 0-.9 0-1.9-.1-.5 0-.9 0-1.1 0s-.3 0-.3-.2 0 0 0-.2c.2-.7.4-3.4.4-8.2 0-2.6 0-4.3 0-5.2 0-.3 0-.6 0-.8 0-2.2-.1-3.8-.3-5 0-.2 0-.3 0-.4s0-.2.2-.2.2 0 .4 0h1.5s1 0 1.2 0h.2s.1 0 .1.1c-.3 2.2-.5 5.2-.5 9.1s0 1.5 0 1.5h1.5s.9 0 1.4 0c-.1-2-.2-3.9-.2-5.7 0-3.1-.2-5-.5-5.8 0-.3-.1-.5-.1-.6s0-.1.3-.1h.3 2.4.5.4c.1 0 .2 0 .2.2s0 .3-.1.6c-.2.9-.3 2.4-.3 4.4s0 4.6.3 7.7l.2 2.8c.2 3.9.4 6.3.6 7.1 0 .4.1.6.1.7s0 .2-.1.2z" fill="#fbd4db"/><path d="m81.1 32.7s0 0 0-.2 0-.2 0-.4c.1-.7.3-2.2.4-4.4.2-3.1.2-6.3.2-9.4s0-2.4 0-3.2c0-1.5-.3-2.8-.6-3.8 0-.2-.1-.4-.1-.5s.1-.2.3-.2.4 0 .5 0h2.1 4.4s1.2 0 1.4 0h.3v.2s0 .3 0 .5c-.1.9-.2 1.7-.2 2.6s0 1.1-.2 1.1-.2-.1-.3-.4c-.3-.7-.9-1.4-1.7-1.9-.8-.6-1.7-.9-2.8-1 0 .7-.2 2.2-.3 4.4 0 1.9-.1 3.7-.1 5.3h.4c1-.2 1.8-.6 2.3-1.3.1-.2.2-.3.2-.3.1 0 .2 1.1.2 3.2s0 1-.1 1-.2 0-.3-.2c-.6-.6-1.5-1-2.7-1.2v1.2c.2 3.8.3 6.3.4 7.5h.5c2.1-.1 3.4-1.2 3.9-3.2.1-.4.2-.7.3-.7s.1.3.1.9c0 1.2.1 2.4.3 3.8v.2s-.1 0-.3 0c-.8 0-1.6 0-2.3 0-1.3 0-3.3.1-6 .4z" fill="#fbd4db"/><g fill="#85ab70"><path d="m62.1 75.7c-.1 0-.3 0-.6-.1-.2 0-.5 0-.9-.1-.4 0-1.3 0-2.5 0-.5 0-.9 0-1.2 0s-.5 0-.6 0-.2-.1-.2-.2 0-.2 0-.3c.2-.7.4-2.3.6-4.8s.3-5.4.5-8.7c.2-5.9.3-10.3.3-13.4s0-1.8 0-3.5-.2-3.7-.7-5.8c0-.2 0-.3 0-.4s0-.2 0-.3.3-.1.7-.1h1.9c6.7 0 10.5 3.8 11.2 11.3v1.9c0 3-.7 5.6-2.1 7.9s-3.8 3.6-7.1 3.9v2.4c.3 5.1.5 8.4.7 9.9v.5c0 .2 0 .3-.2.3zm-.5-14.7s.2 0 .5-.3c1.9-1.4 3.1-3.6 3.7-6.9.2-1.2.3-2.4.3-3.5 0-2-.3-4-1-6.1-.3-.8-.7-1.6-1.1-2.4-.8-1.3-1.4-2-1.7-2s-.4 1.6-.6 4.7c-.3 5.1-.4 9.6-.4 13.6s0 2.8.2 2.8z"/><path d="m87 74.4h-.3c-.6 0-2.9-.1-6.9-.1h-5.6c-.4 0-.6 0-.7 0 0 0 0-.2 0-.3 0-.2 0-.5.1-.8.4-2.2.6-5.9.6-11.2s0-7.1-.1-12c0-2.9-.1-5-.2-6.3 0-1.3-.3-2.4-.5-3.3-.1-.5-.2-.8-.2-1s.2-.1.6-.1h1.9c1.9 0 3.1 0 3.6-.2h.5s.2 0 .2.3-.1.8-.4 1.5c-.3 1.3-.6 2.5-.7 3.7-.2 2.2-.3 5.5-.3 9.9 0 6.2.2 11.6.7 16.2.1 1 .2 1.6.2 1.7s.1.1.4.1c.5 0 1.2-.2 1.9-.5 2.4-1 4-2.9 4.8-5.6.2-.6.4-.9.4-.9s.1.2.1.6v.5c-.1.7-.1 1.6-.1 2.8s0 2.2.1 3c0 .8.1 1.3.1 1.6s0 .5-.1.5z"/><path d="m107.8 74.9c-.1 0-.3 0-.6 0-1-.3-2.4-.4-4.1-.5-.7 0-1.1 0-1.2 0-.2 0-.3-.3-.3-.7v-.2c0-1 0-2-.2-3.1 0-.4 0-.7 0-1l-.5-4.2c-.6 0-1.2 0-1.6 0s-1.5 0-3.1 0c-.1 2-.2 3.9-.2 5.6s0 2.8 0 3.1v.5c0 .2 0 .3-.3.3s-.7 0-1.5-.2h-.2c-1.5-.3-2.6-.4-3.3-.4s-1 0-1-.2 0-.3.1-.6c.6-1.8 1.3-4.8 2.1-9.3.7-3.9 1.3-7.2 1.9-9.9.3-1.6.6-2.8.7-3.5l.4-2.3c.5-2.6.7-5 .7-7s0-1.1 0-1.5c0-.2 0-.4 0-.5 0-.2 0-.3 0-.4h.5 4.7c.7.1 1.3.2 1.6.2s.5.1.5.3 0 .2 0 .3c-.1.5-.2 1.3-.2 2.2 0 1.8.3 5 .8 9.4.6 4.5 1.6 10.4 3 17.7.2 1.1.5 2.2.8 3.3.3 1.2.6 2 .8 2.5 0 .2.1.3.1.4s0 .2-.3.2zm-9.4-11.8h1.5.7c0-.2-.1-1.2-.3-3-.9-7.5-1.5-11.2-1.6-11.2s-.4 1.3-.9 4c-1 5.4-1.5 8.8-1.5 10.2z"/><path d="m117.8 74.5c-.2 0-.4 0-.7-.1-.2 0-1.3 0-3.2 0s-2.1 0-2.3 0c-.3 0-.5 0-.5 0 0-.1 0-.7.2-1.6.3-2.2.4-5.8.4-10.6s0-3.9-.1-5.6c-.4-9.9-.8-15.4-1.2-16.6 0-.1 0-.2 0-.3v-.2c0-.1.8-.2 2.2-.2 1.5 0 2.4 0 2.8-.1h.5.3s.1.3.1.7c.2 2.7 1.1 6.4 2.5 11.1 1.5 4.7 3.3 9.6 5.6 14.9.2 0 .4-3 .4-9s-.1-9.2-.3-13.9c0-.5 0-.9 0-1.2 0-.7 0-1.2 0-1.6v-.6c0-.4.2-.5.6-.5h.4c.6 0 1.2.1 1.9.1s1.4 0 1.8 0h.8.4c.1 0 .2 0 .2.2s0 .2 0 .5 0 .6-.1.9c-.5 4.1-.8 9-.8 14.5s0 3.6.1 7.6c0 4 .5 7.7 1.3 11.2 0 .3.1.5.1.6s0 .2-.2.2-.2 0-.4 0c-1.4-.3-3.1-.4-5.2-.4s-1.8 0-1.9-.2c0 0-.1-.3-.1-.5 0-.5-.2-1.5-.6-2.8-.6-2.1-1.6-5.1-2.9-9.1l-2.1-6.5-1.2-3.5v4.9c0 7.1.5 12.8 1.6 17 .1.5.2.8.2 1s0 .3-.3.3z"/><path d="m145.9 74.7c-1.3 0-2.2 0-2.7 0s-1.1 0-1.8 0h-.9c-.3 0-.5 0-.6 0 0 0-.1-.1-.1-.3s0-.2 0-.4 0-.4.1-.9c0-.4 0-.8.1-1.3.2-3.1.3-7.2.3-12.4v-6.3c0-3.8-.2-7.4-.5-10.8v-.8c-.1-.4-.2-.5-.3-.5s0 0-.1 0 0 0-.1 0c-2.6.7-4.3 3.3-5.2 7.6-.1.7-.3 1.1-.5 1.1s0 0-.1 0 0-.4 0-1.1c0-2.5 0-4.6 0-6.4v-2.2c0-.6 0-.9 0-1 0 0 1.7 0 5.2-.1h4.3 3.2s1.4 0 2.2 0h1.8 1.5v1.1c-.2 1.9-.3 3.3-.4 4.1v4.7s0 1.3 0 1.4c0 0 0 0-.1 0s0 0-.1 0c0 0-.2-.4-.3-1-.4-2-1.1-3.8-2.1-5.3-.9-1.5-2-2.4-3-2.8 0 0 0 0-.1 0 0 0 0 0-.1 0h-.1s-.1.3-.1.8v1.7c-.2 2.4-.3 4.8-.3 7.1s.1 5.8.4 9.8c.3 6.3.8 10.9 1.3 13.9 0 .3.1.5.1.7s-.2.3-.6.3z"/><path d="m166.5 74.1c-.2 0-.3 0-.3-.2s.1-.6.4-1.3c2.8-7.7 5-14.8 6.4-21.3.5-2.4 1-5.8 1.3-10.2-2 .3-3.5 1-4.4 2.1s-1.5 2.8-1.8 5.1c-.1.6-.2 1-.3 1s-.1-.3-.2-.9c-.2-2.9-.5-5.2-.8-7.1-.1-.8-.2-1.4-.2-1.8 9.2 0 13.9-.1 14.1-.1.4 0 .6 0 .6.1s-.2.6-.5 1.4c-1.1 2.7-2.3 6.4-3.6 11.3l-.5 1.9c-1.8 6.5-2.9 12.2-3.4 17.1v.5.1h.2c4.1-.9 6.5-3.6 7-7.9 0-.5.2-.7.3-.7s0 .1 0 .4c0 5.7 0 8.7.2 9v1.1.4s-.1 0-.3 0c-1.3-.2-3-.3-5.2-.3-4 0-7.1.2-9.2.6z"/><path d="m194.9 74.7h-.1c-3.4 0-6.3-2-8.6-6.1-1.9-3.5-2.8-7.5-2.8-12s.6-6.5 1.7-9.7c1.2-3.2 3.1-5.6 5.9-7.3 1.4-.7 2.7-1.1 4-1.1 3.5 0 6.5 2.3 8.8 6.9 1.7 3.3 2.5 7.1 2.5 11.2s-.6 6.5-1.9 9.8c-1.2 2.7-2.9 4.9-5 6.5-1.6 1.1-3.1 1.7-4.4 1.8zm0-2.1c.4 0 .8 0 1.2-.2 1.5-.8 2.7-2.5 3.6-5 1.1-3.1 1.6-6.8 1.6-10.9 0-6.5-1.2-11.3-3.6-14.4-.9-1.1-1.9-1.6-2.8-1.6-2.8 0-4.7 3.3-5.9 10-.3 2.1-.5 4.1-.5 6.1 0 5.8 1 10.4 3.1 13.7 1 1.6 2 2.3 3.2 2.3z"/><path d="m216 74.5c-.2 0-.4 0-.7-.1-.2 0-1.3 0-3.2 0s-2.1 0-2.3 0c-.3 0-.5 0-.5 0 0-.1 0-.7.2-1.6.3-2.2.4-5.8.4-10.6s0-3.9-.1-5.6c-.4-9.9-.8-15.4-1.2-16.6 0-.1 0-.2 0-.3v-.2c0-.1.8-.2 2.2-.2 1.5 0 2.4 0 2.8-.1h.5.3s.1.3.1.7c.2 2.7 1.1 6.4 2.5 11.1 1.5 4.7 3.3 9.6 5.6 14.9.2 0 .4-3 .4-9s-.1-9.2-.3-13.9c0-.5 0-.9 0-1.2 0-.7 0-1.2 0-1.6v-.6c0-.4.2-.5.6-.5h.4c.6 0 1.2.1 1.9.1s1.4 0 1.8 0h.8.4c.1 0 .2 0 .2.2s0 .2 0 .5 0 .6-.1.9c-.5 4.1-.8 9-.8 14.5s0 3.6.1 7.6c0 4 .5 7.7 1.3 11.2 0 .3.1.5.1.6s0 .2-.2.2-.2 0-.4 0c-1.4-.3-3.1-.4-5.2-.4s-1.8 0-1.9-.2c0 0-.1-.3-.1-.5 0-.5-.2-1.5-.6-2.8-.6-2.1-1.6-5.1-2.9-9.1l-2.1-6.5-1.2-3.5v4.9c0 7.1.5 12.8 1.6 17 .1.5.2.8.2 1s0 .3-.3.3z"/><path d="m232 74.2s-.1 0-.1-.2 0-.3 0-.6c.2-1.1.4-3.5.6-7 .2-5 .4-10 .4-15s0-3.8 0-5.1c-.1-2.4-.5-4.5-1-6.1-.1-.4-.2-.6-.2-.8s.2-.2.5-.2.6 0 .9 0h3.3 7.1s1.8 0 2.2 0h.5s.1.2.1.3 0 .4-.1.7c-.2 1.4-.3 2.8-.3 4.1s0 1.7-.3 1.7-.3-.2-.5-.7c-.5-1.2-1.4-2.2-2.7-3.1s-2.8-1.4-4.4-1.6c-.1 1.1-.3 3.5-.4 7.1-.1 3-.2 5.8-.2 8.4h.6c1.7-.3 2.9-.9 3.7-2.1.2-.3.3-.4.4-.4.2 0 .3 1.7.3 5.1s0 1.5-.2 1.5-.3-.1-.5-.4c-1-1-2.5-1.6-4.4-1.9v1.9c.2 6.1.4 10.1.7 11.9h.7c3.3-.2 5.4-1.9 6.2-5.1.2-.7.3-1.1.5-1.1s.2.5.2 1.4c0 1.8.2 3.8.5 6v.3s-.2 0-.5 0c-1.3 0-2.5-.1-3.6-.1-2.1 0-5.3.2-9.6.7h-.3z"/></g><path d="m52 7c-.3 0-1.8 0-3.1 2.1-1.2 2-1.2 4.4-1.2 4.9 0-.5 0-2.9-1.2-4.9s-2.8-2.1-3.1-2.1c.3 0 1.8 0 3.1-2.1 1.2-2 1.2-4.4 1.2-4.9 0 .5 0 2.9 1.2 4.9s2.8 2.1 3.1 2.1z" fill="#fbd6db"/><path d="m256 33.3c-.3 0-1.8 0-3.1 2.1-1.2 2-1.2 4.4-1.2 4.9 0-.5 0-2.9-1.2-4.9s-2.8-2.1-3.1-2.1c.3 0 1.8 0 3.1-2.1 1.2-2 1.2-4.4 1.2-4.9 0 .5 0 2.9 1.2 4.9s2.8 2.1 3.1 2.1z" fill="#fbd6db"/><path d="m164.5 56.1c-.5 0-2.8.1-4.7 3.3-1.8 3.1-1.9 6.8-1.9 7.6 0-.8 0-4.5-1.9-7.6-1.9-3.2-4.3-3.3-4.7-3.3.5 0 2.8-.1 4.7-3.3 1.8-3.1 1.9-6.8 1.9-7.6 0 .8 0 4.5 1.9 7.6 1.9 3.2 4.3 3.3 4.7 3.3z" fill="#fbd6db"/><path d="m13.3 17.3c-.5 0-2.8.1-4.7 3.3-1.8 3.1-1.9 6.8-1.9 7.6 0-.8 0-4.5-1.9-7.6-1.9-3.2-4.3-3.3-4.7-3.3.5 0 2.8-.1 4.7-3.3 1.8-3.1 1.9-6.8 1.9-7.6 0 .8 0 4.5 1.9 7.6 1.9 3.2 4.3 3.3 4.7 3.3z" fill="#fbd6db"/><path d="m23.9 48.1c1-.8 3.2 3.2 4 10.1.5 3.9 2.4 5.2 2.4 5.2-6.4-36.6-.2-55.1-.2-55.1" fill="none" stroke="#85ab70" stroke-miterlimit="10" stroke-width="2"/><path d="m39.2 35.1s-6.6 2.4-8.9 28.4" fill="none" stroke="#85ab70" stroke-miterlimit="10" stroke-width="2"/><path d="m34.3 60.8-11.3 13.3c.2.4.5.6.9.7l12-14h-1.5z" fill="#fdeff1"/><path d="m38.7 60.8h-1.2l-12 14h1.9l11.1-12.9z" fill="#fdeff1"/><path d="m24.3 60.8-3.5 4.1.3 1.4 4.7-5.5z" fill="#fdeff1"/><path d="m27.4 60.8-5.9 7 .4 1.8 7.5-8.8z" fill="#fdeff1"/><path d="m31 60.8-8.7 10.2.3 1.7 10.2-11.9z" fill="#fdeff1"/><path d="m32.5 74.8h2c.6 0 1.1-.4 1.2-1l.9-3.8z" fill="#fdeff1"/><path d="m19.9 60.8.6 2.7 2.2-2.7z" fill="#fdeff1"/><path d="m37.9 64.5-8.9 10.3h1.9l6.3-7.3z" fill="#fdeff1"/><path d="m22.7 60.8-2.2 2.7.3 1.4 3.5-4.1z" fill="#b8deff"/><path d="m25.8 60.8-4.7 5.5.4 1.5 5.9-7z" fill="#b8deff"/><path d="m29.4 60.8-7.5 8.8.4 1.4 8.7-10.2z" fill="#b8deff"/><path d="m32.8 60.8-10.1 11.8.3 1.2v.2l11.3-13.3h-1.6z" fill="#b8deff"/><path d="m35.9 60.8-12 14h.2 1.4l12-14z" fill="#b8deff"/><path d="m38.5 61.9-11.1 12.9h1.6l8.9-10.3z" fill="#b8deff"/><path d="m37.2 67.5-6.3 7.3h1.6l4.1-4.7z" fill="#b8deff"/><path d="m22.8 42.6s2.9-5.4 7.8-3.2-.8 8.4-.8 8.4 0-5.4-3.9-3.8 1.6.1 3.4 2-.5 6.6-3.4 6.8c0 0 1.4-3.3-.1-4.8s-1.1-.6-.7.6c.6 1.8 2 5.9-2.3 6.9s-2.8.4-3-.2.7-2.4.7-3.4c.1-2.1-.4-2.3-.8-2.1s1.9 4.3-1.1 7.3-.8.2-.9-.2-.4-.8-.6-1.3-.4-.2-.5 0c-.2 1.5.2 2.9-3.4 4.8 0 0-1.6.8-2.2 1.7s-.2 0-.2 0c-1.2-2.3-2.8-6.7 4.8-11.3 0 0-.9-1.4-7.1 6.4 0 0-3.2-2.6 4.5-7.5.3-.2.2-.6-.2-.6-1.5 0-2.6 1.9-4.2 4.3 0 0-4.8-6 5.6-7.4s.8 0 1.4-.7.6-1.3-.3-1-3.6 1.2-6 3.1c0 0-2.1-4 4.4-8.5 1.4-1 3.2-1.4 4.9-1.1s3.6 1.5 4.2 4.7z" fill="#15580c"/><path d="m38.4 29.9s0-3.4 2-3 1 1.3 6.1 2c0 0 2.9 1.1 5.2 4.8 0 0-5-2.9-7.1-2s-.3.5 0 .6c.6.3 2.2.8 6.5 1.2s1.3.3 1.9.7.2.2.3.3c1.4 1.5 2.7 4 .6 4.6 0 0-8.1-6.3-8.8-4.7s1.5.9 3 1.6c2.3 1.2 4.9 2.8 6.1 3.2s.9.6.9 1.1-.6 1.8-2.8 2.6c0 0 0-4-5.5-5.6-.7-.2-1.1-.2-1.7 0 0 0 2.9 0 7 4.4.4.4.3 1.2 0 1.7s-1.1 1.2-2.4 1.6c0 0 1.5-3.2-3.7-4.3 0 0 7.4 5.4-1 6.8 0 0-1-2.1-3.2-1.8s-2.8-.5-3.2-2.8.1-2.8.9-4 .4-.7.1-.9c-.7-.3-3.4 1.2-.7 6.2 0 0-4.6.3-4.9-3.8 0 0 .5-4 2.9-4.8 0 0 2.5-.9-.6-.6s-2.5 6-2.5 6-6.2-2.6-2.9-5.5c2.7-2.4 4.5-2.2 5.1-2.1s.1 0 0-.1c-.3-.5-1.7-1.6-7 1.2s-.8 0-1-.3c-.7-1.6-1.7-5.4 3-7.9 0 0 4.9-1.4 7.1 3.5z" fill="#15580c"/><path d="m29 7s-.9-6-5.3-5.4-8.1 2.3-7.3 11.4c0 0 1.7-5.4 8.5-3.7 0 0 1.2.6-5.1 1.5-1.5.2-2.8 1.1-3.5 2.4s.9 4.6 3.4 6c0 0-.3-5.3 2.7-5.9s.5.3.3.5c-1.3 1.3-4.2 4.7-2.4 7.2 0 0 .6.9 2.2 1.1s1.3.3 1.3.3-2.7-5 1-6.7-1.9 2.5-1.7 5.2 2.5 1.9 3.6 2.7 1.2 1.9 1.2 1.9 2.6-.6 4.5-1.9 1.5-3 0-4-1-1.2-.9-1.6c.3-1.3 1.9.1 2.7 1.3.6 1-1.1 3.3-1.4 3.4s.8-.4 2-1c2-1 2.1-3.8.2-4.9-1.5-.9-2.8-1.9-2.9-2.7-.3-2 7 3.6 3.9 6.6s1-.8 2.5-2 .9-2.7-.4-3.3-4.1-2-3.9-2.7c1-2.4 6.3 2.3 5.8 4.3s0 .1.1 0c.8-.7 2.9-2.9 1-4.7s-7-1.1-7.4-2.2 3-1.6 7.1 2c0 0 1-5-4.3-7s-7.7 1.7-7.7 1.7z" fill="#15580c"/><rect fill="#b8deff" height="3.9" rx="1.2" width="21.5" x="18.5" y="58.5"/></svg>