<?xml version="1.0" encoding="UTF-8"?><svg xmlns="http://www.w3.org/2000/svg" width="128.1" height="159.3" viewBox="0 0 128.1 159.3"><g id="a"><path d="M66.9,99.7c-.3,0-.9-.1-1.6-.4-.4-.1-1.2-.2-2.3-.3-1.1,0-3.3,0-6.7,0-1.4,0-2.4,0-3.1,0s-1.2,0-1.5-.1c-.3,0-.4-.3-.4-.6s0-.5,.2-.8c.5-1.9,1-6.2,1.5-12.6,.5-6.5,.9-14.1,1.2-22.7,.5-15.4,.8-27.1,.8-35.2s0-4.6-.1-9.2c0-4.6-.7-9.7-1.7-15.1,0-.5-.1-.8-.1-1.1s0-.5,.2-.7c.1-.2,.7-.3,1.7-.4,1.8-.2,3.5-.3,5.1-.3,17.7,0,27.4,9.9,29.3,29.6,.1,1.7,.2,3.3,.2,4.9,0,7.9-1.8,14.8-5.4,20.6-3.8,6.1-10,9.5-18.6,10.2l.3,6.3c.4,13.3,1,22,1.6,26,.1,.5,.2,1,.2,1.3,0,.5-.2,.8-.6,.8Zm-1.2-38.6c.1,0,.6-.3,1.4-.8,4.9-3.5,8.2-9.5,9.8-18,.6-3.1,.9-6.2,.9-9.3,0-5.3-.9-10.6-2.6-15.9-.8-2.2-1.7-4.2-2.9-6.2-2.1-3.5-3.5-5.2-4.4-5.2s-1,4.1-1.5,12.4c-.8,13.4-1.1,25.3-1.1,35.7s.1,7.3,.4,7.3Z" fill="#85ab70"/><path d="M73.6,159.3c-.5,0-.8-.2-.8-.5s.4-1.5,1.1-3.5c7.4-20.1,13-38.8,16.8-56,1.4-6.3,2.5-15.2,3.4-26.7-5.4,.8-9.2,2.6-11.6,5.4-2.3,2.8-3.9,7.3-4.8,13.5-.3,1.7-.5,2.5-.7,2.5s-.4-.8-.5-2.3c-.6-7.5-1.3-13.7-2-18.7-.4-2.1-.6-3.7-.6-4.8,24.1-.2,36.4-.3,36.9-.3,1,0,1.5,.1,1.5,.4,0,.4-.4,1.6-1.3,3.5-2.8,7-6,16.8-9.4,29.5l-1.4,5c-4.7,17-7.7,31.9-9,44.8v1.2c0,.3,0,.4,0,.4h.4c10.9-2.4,17-9.4,18.5-20.8,.1-1.3,.4-2,.8-2h.2c.1,0,.2,.3,.2,.9,0,14.9,.2,22.7,.6,23.5l.3,3c0,.6,0,.9-.2,1-.1,0-.4,0-.8,0-3.4-.5-8-.7-13.7-.7-10.5,0-18.5,.5-24.1,1.6Z" fill="#85ab70"/><path d="M47.1,9.6c-.4,0-2.5,.1-4.2,2.9-1.6,2.7-1.7,6-1.7,6.7,0-.7,0-4-1.7-6.7-1.7-2.8-3.8-2.9-4.2-2.9,.4,0,2.5-.1,4.2-2.9,1.6-2.7,1.7-6,1.7-6.7,0,.7,0,4,1.7,6.7,1.7,2.8,3.8,2.9,4.2,2.9Z" fill="#fbd6db"/><path d="M102.8,54.2c-.4,0-2.5,.1-4.2,2.9-1.6,2.7-1.7,6-1.7,6.7,0-.7,0-4-1.7-6.7-1.7-2.8-3.8-2.9-4.2-2.9,.4,0,2.5-.1,4.2-2.9,1.6-2.7,1.7-6,1.7-6.7,0,.7,0,4,1.7,6.7,1.7,2.8,3.8,2.9,4.2,2.9Z" fill="#fbd6db"/><path d="M18.2,79.6c-.6,0-3.9,.2-6.5,4.5-2.5,4.2-2.6,9.3-2.6,10.3,0-1.1-.1-6.2-2.6-10.3-2.6-4.3-5.8-4.5-6.5-4.5,.6,0,3.9-.2,6.5-4.5,2.5-4.2,2.6-9.3,2.6-10.3,0,1.1,.1,6.2,2.6,10.3,2.6,4.3,5.8,4.5,6.5,4.5Z" fill="#fbd6db"/><path d="M128.1,115.9c-.6,0-3.9,.2-6.5,4.5-2.5,4.2-2.6,9.3-2.6,10.3,0-1.1-.1-6.2-2.6-10.3-2.6-4.3-5.8-4.5-6.5-4.5,.6,0,3.9-.2,6.5-4.5,2.5-4.2,2.6-9.3,2.6-10.3,0,1.1,.1,6.2,2.6,10.3,2.6,4.3,5.8,4.5,6.5,4.5Z" fill="#fbd6db"/></g><g id="b"><g><g/><path d="M31.1,121.5c1.3-1.1,4.4,4.4,5.4,13.8,.6,5.3,3.3,7.1,3.3,7.1-8.8-49.9-.2-75.2-.2-75.2" fill="none" stroke="#85ab70" stroke-miterlimit="10" stroke-width="6"/><path d="M52,103.8s-9,3.3-12.1,38.7" fill="none" stroke="#85ab70" stroke-miterlimit="10" stroke-width="6"/><g><path d="M45.3,138.8l-15.5,18.1c.2,.5,.7,.9,1.2,1l16.3-19.1h-2.1Z" fill="#fdeff1"/><polygon points="51.3 138.8 49.5 138.8 33.2 157.9 35.9 157.9 50.9 140.3 51.3 138.8" fill="#fdeff1"/><polygon points="31.6 138.8 26.8 144.4 27.3 146.3 33.7 138.8 31.6 138.8" fill="#fdeff1"/><polygon points="35.9 138.8 27.8 148.3 28.3 150.8 38.5 138.8 35.9 138.8" fill="#fdeff1"/><polygon points="40.7 138.8 28.8 152.7 29.3 155 43.1 138.8 40.7 138.8" fill="#fdeff1"/><path d="M42.8,157.9h2.7c.8,0,1.5-.5,1.7-1.3l1.2-5.2-5.5,6.5Z" fill="#fdeff1"/><polygon points="25.5 138.8 26.4 142.4 29.5 138.8 25.5 138.8" fill="#fdeff1"/><polygon points="50.1 143.8 38 157.9 40.6 157.9 49.1 147.9 50.1 143.8" fill="#fdeff1"/><polygon points="29.5 138.8 26.4 142.4 26.8 144.4 31.6 138.8 29.5 138.8" fill="#b8deff"/><polygon points="33.7 138.8 27.3 146.3 27.8 148.3 35.9 138.8 33.7 138.8" fill="#b8deff"/><polygon points="38.5 138.8 28.3 150.8 28.8 152.7 40.7 138.8 38.5 138.8" fill="#b8deff"/><path d="M43.1,138.8l-13.8,16.1,.4,1.6c0,.1,0,.2,.1,.3l15.5-18.1h-2.2Z" fill="#b8deff"/><path d="M47.3,138.8l-16.3,19.1c0,0,.2,0,.3,0h1.8l16.3-19.1h-2.2Z" fill="#b8deff"/><polygon points="50.9 140.3 35.9 157.9 38 157.9 50.1 143.8 50.9 140.3" fill="#b8deff"/><polygon points="49.1 147.9 40.6 157.9 42.8 157.9 48.3 151.4 49.1 147.9" fill="#b8deff"/></g><path d="M29.6,114s4-7.3,10.7-4.3c6.6,3-1,11.5-1,11.5,0,0-.1-7.4-5.4-5.2s2.1,.2,4.6,2.7c1.7,1.8-.7,9.1-4.6,9.3,0,0,1.9-4.6-.2-6.5-.2-.2-1.4-.8-.9,.8,.8,2.5,2.7,8.1-3.1,9.4s-3.9,.5-4.2-.2,.9-3.3,1-4.6c.2-2.9-.6-3.1-1.1-2.9s2.6,5.8-1.5,9.9-1,.3-1.3-.2-.5-1.1-.8-1.8-.6-.3-.7,0c-.3,2.1,.3,3.9-4.7,6.6,0,0-2.2,1.1-3.1,2.3s-.2,0-.3,0c-1.7-3.1-3.9-9.1,6.6-15.5,0,0-1.3-1.9-9.7,8.8,0,0-4.4-3.5,6.1-10.2s.2-.9-.3-.9c-2.1,0-3.5,2.6-5.7,5.8,0,0-6.5-8.2,7.7-10.1,0,0,0,0,0,0,.1,0,1.2,0,2-1,.8-.9,.8-1.8-.3-1.4s-4.9,1.7-8.2,4.2c0,0-2.9-5.4,5.9-11.6,1.9-1.4,4.3-2,6.7-1.5,2.4,.5,4.9,2.1,5.7,6.4Z" fill="#15580c"/><path d="M50.8,96.7s0-4.6,2.8-4.2c2.8,.4,1.3,1.8,8.4,2.7,0,0,4,1.4,7.1,6.6,0,0-6.8-4-9.7-2.8-.3,.1-.4,.6,0,.8,.8,.5,3,1.1,8.9,1.7,.9,0,1.8,.4,2.5,1s.3,.3,.5,.4c1.9,2,3.7,5.5,.8,6.3,0,0-11-8.6-12.1-6.4s2,1.2,4.1,2.2c3.1,1.6,6.7,3.8,8.3,4.3s1.2,.8,1.3,1.5-.9,2.5-3.8,3.6c0,0,0-5.5-7.6-7.6-1-.3-1.5-.3-2.3,.1,0,0,3.9,0,9.6,6s.4,1.7,0,2.3c-.5,.8-1.5,1.7-3.3,2.2,0,0,2-4.3-5.1-5.9,0,0,10.1,7.4-1.4,9.2,0,0-1.4-2.8-4.3-2.4-2.2,.3-3.8-.7-4.3-3.8-.3-1.9,.2-3.8,1.3-5.4,.4-.5,.5-1,.2-1.2-.9-.4-4.6,1.7-.9,8.5,0,0-6.3,.4-6.6-5.2,0,0,.7-5.5,4-6.5,0,0,3.4-1.2-.8-.8-4.2,.5-3.4,8.2-3.4,8.2,0,0-8.4-3.6-3.9-7.5,3.7-3.2,6.1-3,6.9-2.8s.2,0,.1-.2c-.4-.7-2.3-2.2-9.6,1.6-.5,.3-1.1,0-1.4-.5-1-2.2-2.4-7.4,4-10.8,0,0,6.7-1.9,9.7,4.7Z" fill="#15580c"/><path d="M38,65.5s-1.3-8.2-7.2-7.3c-6,.9-11.1,3.2-9.9,15.6,0,0,2.3-7.3,11.6-5,0,0,1.6,.8-6.9,2s-3.8,1.4-4.8,3.2c-.9,1.7,1.2,6.3,4.6,8.2,0,0-.4-7.2,3.6-8s.7,.4,.4,.7c-1.7,1.8-5.7,6.5-3.3,9.9,0,0,.8,1.2,3,1.6,2.2,.4,1.7,.4,1.7,.4,0,0-3.6-6.8,1.3-9.1,2.4-1.1-2.6,3.4-2.3,7.1,.2,3.7,3.4,2.6,4.9,3.7s1.7,2.5,1.7,2.5c0,0,3.5-.9,6.1-2.6,1.9-1.3,2-4.1,.1-5.5s-1.3-1.6-1.2-2.2c.4-1.7,2.6,.1,3.7,1.8s-1.5,4.4-1.9,4.7,1.1-.5,2.7-1.3c2.7-1.4,2.8-5.2,.2-6.7-2-1.2-3.8-2.6-4-3.7-.5-2.7,9.5,4.9,5.3,8.9-.6,.6,1.4-1.1,3.4-2.7,1.5-1.3,1.3-3.7-.5-4.6s-5.6-2.8-5.3-3.6c1.3-3.2,8.7,3.2,7.9,5.8s0,.2,.2,.1c1.1-1,3.9-3.9,1.3-6.4-3.2-3.1-9.5-1.5-10-3s4.1-2.2,9.7,2.7c0,0,1.4-6.8-5.8-9.5s-10.4,2.3-10.4,2.3Z" fill="#15580c"/><rect x="23.7" y="135.6" width="29.3" height="5.3" rx="1.6" ry="1.6" fill="#b8deff"/></g></g></svg>