<svg height="182.3" viewBox="0 0 256 182.3" width="256" xmlns="http://www.w3.org/2000/svg"><path d="m25.7 178.1c-.5 0-1.4-.2-2.5-.6-.7-.2-1.8-.3-3.5-.4-1.7 0-5.1-.1-10.3-.1h-4.8c-1.1 0-1.9 0-2.3-.2-.5-.1-.7-.4-.7-.9s0-.8.3-1.3c.7-3 1.5-9.5 2.2-19.5.8-10 1.4-21.7 1.9-35 .8-23.7 1.3-41.8 1.3-54.4s0-7.1-.2-14.3c-.1-7.2-1-15-2.6-23.4-.1-.7-.2-1.3-.2-1.7s.1-.8.3-1.1 1.1-.5 2.7-.6c2.7-.3 5.3-.4 7.8-.4 27.3 0 42.4 15.2 45.2 45.7.2 2.6.3 5.1.3 7.6 0 12.2-2.8 22.8-8.4 31.9-5.9 9.5-15.4 14.7-28.7 15.7l.5 9.7c.7 20.6 1.5 34 2.5 40.2.2.8.3 1.5.3 2 0 .8-.3 1.2-1 1.2zm-1.9-59.5c.2 0 .9-.4 2.2-1.2 7.6-5.5 12.6-14.7 15.1-27.8.9-4.8 1.4-9.6 1.4-14.4 0-8.2-1.3-16.4-4-24.5-1.2-3.3-2.6-6.5-4.4-9.6-3.2-5.3-5.5-8-6.8-8s-1.5 6.4-2.2 19.1c-1.2 20.7-1.8 39-1.8 55.1s.2 11.2.7 11.2zm160.4 56.9c-.8 0-1.2-.3-1.2-.8s.6-2.2 1.7-5.4c11.4-31.1 20.1-59.9 26-86.4 2.2-9.8 3.9-23.5 5.3-41.3-8.3 1.2-14.2 3.9-17.8 8.3s-6.1 11.3-7.4 20.8c-.5 2.6-.8 3.9-1.1 3.9s-.6-1.2-.8-3.6c-.9-11.6-2-21.2-3.1-28.8-.6-3.3-.9-5.7-.9-7.3 37.2-.3 56.2-.4 57-.5 1.5 0 2.2.2 2.2.6 0 .6-.7 2.4-2 5.5-4.4 10.8-9.2 26-14.6 45.6l-2.2 7.7c-7.3 26.2-11.9 49.2-13.9 69.1v2.5h.7c16.7-3.8 26.3-14.5 28.5-32.2.2-2 .6-3 1.3-3h.3c.2 0 .3.4.3 1.5 0 23 .3 35.1.9 36.3l.4 4.6c0 .9 0 1.4-.3 1.5-.2 0-.6.1-1.2.1-5.2-.7-12.3-1.1-21.2-1.1-16.2 0-28.6.8-37.2 2.4z" fill="#85ab70"/><path d="m255.9 96.3c-.6 0-3.8.2-6.4 4.5-2.5 4.2-2.6 9.2-2.6 10.3 0-1.1-.1-6.1-2.6-10.3-2.6-4.3-5.8-4.5-6.4-4.5.6 0 3.8-.2 6.4-4.5 2.5-4.2 2.6-9.2 2.6-10.3 0 1.1.1 6.1 2.6 10.3 2.6 4.3 5.8 4.5 6.4 4.5zm-197.5 53.8c-.6 0-3.8.2-6.4 4.5-2.5 4.2-2.6 9.2-2.6 10.3 0-1.1-.1-6.1-2.6-10.3-2.6-4.3-5.8-4.5-6.4-4.5.6 0 3.8-.2 6.4-4.5 2.5-4.2 2.6-9.2 2.6-10.3 0 1.1.1 6.1 2.6 10.3 2.6 4.3 5.8 4.5 6.4 4.5zm128.2-18.9c-1 0-6 .3-10 7-3.9 6.5-4 14.3-4.1 16 0-1.7-.2-9.5-4.1-16-4-6.7-9-6.9-10-7 1 0 6-.3 10-7 3.9-6.5 4-14.3 4.1-16 0 1.7.2 9.5 4.1 16 4 6.7 9 6.9 10 7zm-106.3-110.7c-1 0-6 .3-10 7-3.9 6.5-4 14.3-4.1 16 0-1.7-.2-9.5-4.1-16-4-6.7-9-6.9-10-7 1 0 6-.3 10-7 3.9-6.5 4-14.3 4.1-16 0 1.7.2 9.5 4.1 16 4 6.7 9 6.9 10 7z" fill="#fbd6db"/><path d="m105 119.4c2.2-1.8 7.3 7.3 9.1 23s5.5 11.8 5.5 11.8c-14.6-83.1-.4-125.2-.4-125.2m20.6 60.9s-15 5.4-20.2 64.4" fill="none" stroke="#85ab70" stroke-miterlimit="10" stroke-width="5"/><path d="m128.7 148.3-25.8 30.1c.4.8 1.2 1.4 2.1 1.6l27.1-31.8h-3.4zm10 0h-3l-27.1 31.8h4.4l25.1-29.4zm-32.7 0-8 9.4.7 3.1 10.7-12.5zm7 0-13.5 15.8.9 4.1 17-19.9zm8 0-19.8 23.2.9 3.7 23-26.9zm3.5 31.8h4.5c1.3 0 2.5-.9 2.8-2.2l2-8.6-9.2 10.8zm-28.7-31.8 1.4 6 5.1-6zm40.9 8.3-20.1 23.5h4.3l14.2-16.6z" fill="#fdeff1"/><path d="m102.3 148.3-5.1 6 .8 3.4 8-9.4zm7.1 0-10.7 12.5.8 3.3 13.5-15.8zm8 0-17 19.9.8 3.3 19.8-23.2zm7.7 0-23 26.9.6 2.7c0 .2.1.4.2.5l25.8-30.1zm7 0-27.1 31.8h3.6l27.2-31.8h-3.6zm6 2.4-25.1 29.4h3.6l20.1-23.5zm-3 12.8-14.2 16.6h3.6l9.3-10.8z" fill="#b8deff"/><path d="m102.5 107s6.7-12.2 17.8-7.2-1.7 19.1-1.7 19.1-.2-12.3-8.9-8.7c-7.3 2.9 3.6.3 7.7 4.6 2.8 2.9-1.2 15.1-7.7 15.4 0 0 3.1-7.6-.3-10.8-.3-.3-2.4-1.4-1.5 1.4 1.3 4.2 4.6 13.4-5.2 15.7-1.3.3-6.5.9-6.9-.4s1.5-5.4 1.6-7.7c.3-4.9-1-5.2-1.9-4.8s4.4 9.7-2.5 16.5-1.7.4-2.1-.4-.9-1.8-1.3-3-1-.5-1.1 0c-.5 3.5.5 6.5-7.8 11 0 0-3.7 1.8-5.1 3.9s-.4.2-.5 0c-2.8-5.2-6.5-15.2 10.9-25.8 0 0-2.1-3.2-16.2 14.6 0 0-7.3-5.8 10.1-16.9.7-.4.4-1.4-.4-1.4-3.4 0-5.9 4.4-9.5 9.7 0 0-10.9-13.7 12.8-16.7.2 0 1.9 0 3.3-1.6s1.3-2.9-.6-2.4-8.1 2.8-13.7 7c0 0-4.8-9 9.9-19.4s7.2-3.3 11.1-2.5 8.2 3.5 9.6 10.7z" fill="#15580c"/><path d="m137.8 78.1s0-7.6 4.6-6.9 2.2 2.9 13.9 4.5c0 0 6.7 2.4 11.9 10.9 0 0-11.3-6.7-16.1-4.6s-.6 1.1 0 1.4c1.3.8 4.9 1.9 14.8 2.8 1.5.1 3 .6 4.2 1.6s.5.4.8.7c3.1 3.3 6.2 9.1 1.3 10.4 0 0-18.3-14.4-20.1-10.7s3.3 2 6.8 3.7c5.2 2.6 11.2 6.3 13.9 7.2s2 1.3 2.1 2.5-1.4 4.2-6.4 6c0 0 0-9.1-12.6-12.6-1.6-.4-2.4-.5-3.8.2 0 0 6.5.1 16 9.9s.6 2.8-.1 3.9-2.5 2.8-5.5 3.6c0 0 3.4-7.2-8.5-9.7 0 0 16.8 12.3-2.3 15.3 0 0-2.3-4.7-7.2-4s-6.3-1.2-7.2-6.3c-.6-3.2.3-6.4 2.1-9s.9-1.7.3-2c-1.5-.7-7.7 2.8-1.5 14.1 0 0-10.5.6-11.1-8.7 0 0 1.2-9.1 6.6-10.9 0 0 5.7-2.1-1.3-1.3s-5.6 13.6-5.6 13.6-14-5.9-6.5-12.5c6.1-5.4 10.2-5 11.5-4.7s.3-.2.2-.3c-.7-1.2-3.9-3.7-15.9 2.7-.9.5-1.9.1-2.3-.8-1.6-3.6-3.9-12.3 6.7-18 0 0 11.1-3.2 16.1 7.9zm-21.3-52s-2.1-13.6-12-12.2-18.4 5.3-16.5 26c0 0 3.9-12.2 19.3-8.3 0 0 2.7 1.3-11.5 3.3s-6.4 2.4-8 5.4 2 10.5 7.7 13.6c0 0-.6-12 6.1-13.3.7-.1 1.1.7.7 1.1-2.9 3-9.5 10.8-5.4 16.4 0 0 1.4 2 5 2.6s2.9.7 2.9.7-6-11.3 2.2-15.2-4.3 5.7-3.9 11.8 5.7 4.4 8.1 6.2 2.8 4.2 2.8 4.2 5.8-1.4 10.2-4.4 3.3-6.9.2-9.1-2.2-2.7-1.9-3.7c.7-2.9 4.4.2 6.1 3.1s-2.5 7.4-3.2 7.8 1.8-.8 4.6-2.2c4.5-2.3 4.7-8.6.4-11.2s-6.4-4.3-6.7-6.2c-.8-4.5 15.8 8.1 8.9 14.9-1 1 2.4-1.8 5.7-4.5s2.1-6.1-.9-7.6c-4.1-2-9.4-4.7-8.8-6 2.2-5.4 14.4 5.3 13.1 9.7s.1.3.3.2c1.9-1.7 6.6-6.5 2.2-10.7-5.3-5.1-15.9-2.4-16.7-5s6.8-3.7 16.2 4.5c0 0 2.3-11.4-9.7-15.9-14.9-5.6-17.4 3.8-17.4 3.8z" fill="#15580c"/><rect fill="#b8deff" height="8.8" rx="2.7" width="48.9" x="92.8" y="143"/></svg>