<svg xmlns="http://www.w3.org/2000/svg" width="256" height="320.3" viewBox="0 0 256 320.3"><path fill="#85ab70" d="M133.7 200.3c-.7 0-1.8-.3-3.3-.8-.8-.3-2.4-.4-4.6-.6-2.2-.1-6.6-.2-13.3-.2-2.7 0-4.8-.1-6.2-.1s-2.4 0-3-.3c-.6-.2-.9-.6-.9-1.1s.1-1.1.4-1.6c.9-3.9 1.9-12.3 2.9-25.3s1.8-28.1 2.4-45.4c1.1-30.7 1.6-54.2 1.6-70.4s0-9.2-.3-18.5c-.2-9.3-1.3-19.4-3.4-30.3-.2-.9-.3-1.6-.3-2.2s.1-1.1.4-1.4c.3-.3 1.5-.6 3.5-.8 3.5-.3 6.9-.5 10.1-.5 35.4 0 54.9 19.7 58.5 59.1.3 3.4.4 6.7.4 9.9 0 15.8-3.6 29.5-10.9 41.3-7.6 12.2-20 19-37.2 20.4l.6 12.5c.8 26.7 1.9 44 3.3 52 .3 1.1.4 1.9.4 2.5 0 1-.4 1.5-1.3 1.5zm-2.4-77.1c.3 0 1.2-.5 2.8-1.5 9.9-7.1 16.4-19.1 19.5-36 1.2-6.2 1.8-12.4 1.8-18.6 0-10.6-1.7-21.2-5.2-31.8-1.5-4.3-3.4-8.4-5.7-12.4-4.1-6.9-7.1-10.4-8.9-10.4s-2 8.2-2.9 24.7c-1.5 26.8-2.3 50.6-2.3 71.4s.3 14.6.9 14.6z"/><path fill="#85ab70" d="M147.1 319.4c-1 0-1.5-.3-1.5-1s.7-2.9 2.2-7c14.8-40.3 26-77.6 33.7-111.9 2.8-12.7 5.1-30.5 6.8-53.4-10.7 1.5-18.4 5.1-23.1 10.8-4.7 5.7-7.9 14.6-9.6 27-.6 3.4-1.1 5.1-1.4 5.1s-.8-1.6-1-4.7c-1.2-15-2.5-27.5-4.1-37.3-.8-4.2-1.1-7.4-1.1-9.5 48.1-.3 72.7-.5 73.8-.6 1.9 0 2.9.3 2.9.8 0 .8-.8 3.1-2.5 7.1-5.7 14-11.9 33.7-18.9 59l-2.8 10c-9.5 33.9-15.4 63.8-18 89.5v2.4c-.1.5 0 .8.1.8h.9c21.7-4.9 34-18.8 37-41.6.3-2.6.8-3.9 1.6-3.9h.4c.3-.1.4.5.4 1.9 0 29.8.4 45.4 1.1 47l.5 6c0 1.2-.1 1.8-.4 2-.3.1-.8.2-1.5.2-6.8-.9-15.9-1.4-27.5-1.4-21 0-37 1.1-48.1 3.2z"/><path fill="#fbd6db" d="M94.2 20.2c-.8 0-5 .2-8.3 5.8-3.2 5.4-3.4 11.9-3.4 13.3 0-1.4-.2-7.9-3.4-13.3-3.3-5.6-7.5-5.8-8.3-5.8.8 0 5-.3 8.3-5.8C82.3 9 82.5 2.5 82.5 1.1c0 1.4.2 7.9 3.4 13.3 3.3 5.6 7.5 5.8 8.3 5.8zm111.2 89.3c-.8 0-5 .2-8.3 5.8-3.2 5.4-3.4 11.9-3.4 13.3 0-1.4-.2-7.9-3.4-13.3-3.3-5.6-7.5-5.8-8.3-5.8.8 0 5-.3 8.3-5.8 3.2-5.4 3.4-11.9 3.4-13.3 0 1.4.2 7.9 3.4 13.3 3.3 5.6 7.5 5.8 8.3 5.8zM36.3 160.1c-1.3 0-7.7.4-12.9 9-5 8.4-5.2 18.5-5.3 20.7 0-2.1-.2-12.3-5.3-20.7-5.2-8.6-11.6-9-12.9-9 1.3 0 7.7-.4 12.9-9 5-8.4 5.2-18.5 5.3-20.7 0 2.1.2 12.3 5.3 20.7 5.2 8.6 11.6 9 12.9 9zM256 232.8c-1.3 0-7.7.4-12.9 9-5 8.4-5.2 18.5-5.3 20.7 0-2.1-.2-12.3-5.3-20.7-5.2-8.6-11.6-9-12.9-9 1.3 0 7.7-.4 12.9-9 5-8.4 5.2-18.5 5.3-20.7 0 2.1.2 12.3 5.3 20.7 5.2 8.6 11.6 9 12.9 9z"/><path fill="none" stroke="#85ab70" stroke-miterlimit="10" stroke-width="6" d="M62.1 243.9c2.7-2.2 8.7 8.8 10.9 27.7 1.2 10.7 6.6 14.2 6.6 14.2-17.5-99.7-.5-150.2-.5-150.2m24.8 72.9s-18.1 6.5-24.2 77.3"/><path fill="#fdeff1" d="M90.5 278.5l-30.9 36.2c.5 1 1.4 1.7 2.5 1.9l32.6-38.1h-4.1zm12 0H99l-32.7 38.2h5.4l30.1-35.3.7-2.9zm-39.3 0l-9.6 11.2.9 3.8 12.8-15h-4.1zm8.5 0l-16.2 19 1.1 4.9L77 278.5h-5.3zm9.6 0l-23.8 27.9 1.1 4.4 27.6-32.3h-4.9zm4.2 38.2h5.4c1.6 0 2.9-1.1 3.3-2.6l2.4-10.3-11.1 13zM51 278.5l1.7 7.3 6.2-7.3H51zm49.2 9.9L76 316.7h5.2l17-19.9 2-8.4z"/><path fill="#b8deff" d="M58.9 278.5l-6.2 7.3.9 3.9 9.6-11.2h-4.3zm8.4 0l-12.8 15 1 4 16.2-19h-4.4zm9.7 0l-20.4 23.9.9 4 23.8-27.9H77zm9.2 0l-27.6 32.3.8 3.3c0 .2.1.4.2.6l30.9-36.2h-4.3zm8.4 0L62 316.6h4.3l32.6-38.2h-4.3zm7.2 2.9l-30.1 35.3H76l24.2-28.3 1.6-7zm-3.6 15.4l-17 19.9h4.3l11.1-13 1.6-6.9z"/><path fill="#15580c" d="M59.1 228.9s8-14.6 21.3-8.6-2 23-2 23-.2-14.7-10.7-10.5c-8.8 3.5 4.3.3 9.2 5.5 3.4 3.5-1.5 18.1-9.2 18.5 0 0 3.7-9.1-.4-13-.4-.4-2.9-1.6-1.9 1.6 1.5 5 5.5 16.1-6.2 18.8-1.5.4-7.8 1-8.3-.4-.6-1.7 1.8-6.5 1.9-9.2.3-5.9-1.2-6.2-2.2-5.7s5.2 11.6-2.9 19.8c-.8.8-2.1.5-2.6-.4s-1.1-2.1-1.6-3.5-1.2-.6-1.3.1c-.7 4.2.6 7.8-9.4 13.2 0 0-4.5 2.1-6.1 4.7-.1.2-.4.2-.5 0-3.4-6.2-7.8-18.2 13.1-30.9 0 0-2.5-3.8-19.4 17.5 0 0-8.7-7 12.2-20.3.8-.5.4-1.7-.5-1.7-4.1 0-7.1 5.2-11.4 11.6 0 0-13-16.4 15.3-20.1.3 0 2.3 0 3.9-1.9 1.6-1.8 1.6-3.5-.7-2.9-2.5.7-9.7 3.3-16.4 8.4 0 0-5.8-10.8 11.9-23.3 3.9-2.7 8.7-3.9 13.3-3 4.7 1 9.8 4.2 11.5 12.8zm42.4-34.6s-.1-9.1 5.6-8.3c5.7.8 2.6 3.5 16.7 5.5 0 0 8 2.9 14.3 13.1 0 0-13.5-8-19.4-5.5-.7.3-.7 1.3 0 1.7 1.6.9 5.9 2.3 17.8 3.3 1.8.2 3.6.8 5.1 1.9s.6.5.9.9c3.8 4 7.4 11 1.5 12.5 0 0-22-17.3-24.1-12.9-.7 1.5 4 2.3 8.1 4.4 6.2 3.1 13.4 7.6 16.7 8.7 1.3.5 2.4 1.6 2.6 3s-1.7 5-7.7 7.1c0 0 0-10.9-15.1-15.2-1.9-.5-2.9-.6-4.6.2 0 0 7.8.2 19.2 11.9s.7 3.3-.1 4.6c-1 1.6-3 3.4-6.6 4.4 0 0 4.1-8.7-10.2-11.7 0 0 20.2 14.7-2.8 18.4 0 0-2.7-5.6-8.6-4.8-4.4.6-7.6-1.5-8.6-7.6-.7-3.8.4-7.7 2.6-10.8.7-1.1 1.1-2 .4-2.4-1.8-.8-9.2 3.4-1.8 16.9 0 0-12.6.8-13.3-10.5 0 0 1.5-10.9 8-13 0 0 6.9-2.5-1.5-1.5-8.4.9-6.7 16.4-6.7 16.4s-16.8-7.1-7.8-15c7.3-6.4 12.2-6 13.8-5.7.2 0 .4-.2.3-.4-.9-1.4-4.7-4.5-19.1 3.3-1 .5-2.3.1-2.7-.9-1.9-4.3-4.7-14.8 8-21.5 0 0 13.3-3.9 19.4 9.4zm-25.6-62.4s-2.5-16.4-14.5-14.6c-11.9 1.8-22.1 6.3-19.8 31.1 0 0 4.7-14.6 23.2-10 0 0 3.3 1.6-13.8 4-4 .6-7.7 2.9-9.6 6.5s2.4 12.6 9.2 16.3c0 0-.7-14.4 7.3-16 .8-.2 1.4.8.8 1.4-3.5 3.6-11.4 12.9-6.5 19.7 0 0 1.7 2.4 6 3.1 4.3.8 3.5.9 3.5.9s-7.3-13.6 2.7-18.2c4.7-2.2-5.1 6.9-4.7 14.2.5 7.3 6.8 5.3 9.8 7.4 3 2.1 3.4 5.1 3.4 5.1s7-1.7 12.2-5.3c3.8-2.6 4-8.3.2-10.9-2.2-1.6-2.6-3.3-2.3-4.5.8-3.5 5.3.3 7.4 3.7 1.7 2.7-3 8.9-3.8 9.3s2.2-1 5.5-2.7c5.4-2.7 5.7-10.3.5-13.4-4-2.4-7.6-5.2-8-7.5-.9-5.4 19 9.8 10.7 17.9-1.2 1.2 2.8-2.1 6.8-5.3 3.1-2.5 2.5-7.3-1-9.1-4.9-2.4-11.3-5.6-10.6-7.2 2.7-6.4 17.3 6.4 15.7 11.6 0 .2.2.4.3.2 2.3-2 7.9-7.8 2.7-12.8-6.4-6.2-19.1-2.9-20-6s8.1-4.4 19.5 5.4c0 0 2.7-13.6-11.7-19.1-17.9-6.8-20.8 4.6-20.8 4.6z"/><rect width="58.7" height="10.5" x="47.4" y="272.1" fill="#b8deff" rx="3.2" ry="3.2"/></svg>