<svg xmlns="http://www.w3.org/2000/svg" width="256" height="76.1" viewBox="0 0 256 76.1"><text fill="#fbd4db" font-family="Hamerald, Hamerald" font-size="31.1" transform="translate(56.2 32.4)"><tspan x="0" y="0">THE</tspan></text><text fill="#85ab70" font-family="Hamerald, Hamerald" font-size="49.4" transform="translate(56.2 73.9)"><tspan x="0" y="0">PLANT </tspan><tspan x="110.1" y="0" letter-spacing="0em">Z</tspan><tspan x="127.1" y="0">ONE</tspan></text><path fill="#fbd6db" d="M52 7c-.3 0-1.8 0-3.1 2.1-1.2 2-1.2 4.4-1.2 4.9 0-.5 0-2.9-1.2-4.9-1.2-2-2.8-2.1-3.1-2.1.3 0 1.8 0 3.1-2.1 1.2-2 1.2-4.4 1.2-4.9 0 .5 0 2.9 1.2 4.9C50.1 6.9 51.7 7 52 7zm204 26.3c-.3 0-1.8 0-3.1 2.1-1.2 2-1.2 4.4-1.2 4.9 0-.5 0-2.9-1.2-4.9-1.2-2-2.8-2.1-3.1-2.1.3 0 1.8 0 3.1-2.1 1.2-2 1.2-4.4 1.2-4.9 0 .5 0 2.9 1.2 4.9 1.2 2 2.8 2.1 3.1 2.1zm-91.5 22.8c-.5 0-2.8.1-4.7 3.3-1.8 3.1-1.9 6.8-1.9 7.6 0-.8 0-4.5-1.9-7.6-1.9-3.2-4.3-3.3-4.7-3.3.5 0 2.8-.1 4.7-3.3 1.8-3.1 1.9-6.8 1.9-7.6 0 .8 0 4.5 1.9 7.6 1.9 3.2 4.3 3.3 4.7 3.3zM13.3 17.3c-.5 0-2.8.1-4.7 3.3-1.8 3.1-1.9 6.8-1.9 7.6 0-.8 0-4.5-1.9-7.6C2.9 17.4.5 17.3.1 17.3c.5 0 2.8-.1 4.7-3.3 1.8-3.1 1.9-6.8 1.9-7.6 0 .8 0 4.5 1.9 7.6 1.9 3.2 4.3 3.3 4.7 3.3z"/><path fill="none" stroke="#85ab70" stroke-miterlimit="10" stroke-width="2" d="M23.9 48.1c1-.8 3.2 3.2 4 10.1.5 3.9 2.4 5.2 2.4 5.2-6.4-36.6-.2-55.1-.2-55.1m9.1 26.8s-6.6 2.4-8.9 28.4"/><path fill="#fdeff1" d="M34.3 60.8L23 74.1c.2.4.5.6.9.7l12-14h-1.5zm4.4 0h-1.2l-12 14h1.9l11.1-12.9.2-1.1zm-14.4 0l-3.5 4.1.3 1.4 4.7-5.5h-1.5zm3.1 0l-5.9 7 .4 1.8 7.5-8.8h-2zm3.6 0L22.3 71l.3 1.7 10.2-11.9H31zm1.5 14h2c.6 0 1.1-.4 1.2-1l.9-3.8-4.1 4.8zm-12.6-14l.6 2.7 2.2-2.7h-2.8zm18 3.7L29 74.8h1.9l6.3-7.3.7-3z"/><path fill="#b8deff" d="M22.7 60.8l-2.2 2.7.3 1.4 3.5-4.1h-1.6zm3.1 0l-4.7 5.5.4 1.5 5.9-7h-1.6zm3.6 0l-7.5 8.8.4 1.4L31 60.8h-1.6zm3.4 0L22.7 72.6l.3 1.2v.2l11.3-13.3h-1.6zm3.1 0l-12 14h1.6l12-14h-1.6zm2.6 1.1L27.4 74.8H29l8.9-10.3.6-2.6zm-1.3 5.6l-6.3 7.3h1.6l4.1-4.7.6-2.6z"/><path fill="#15580c" d="M22.8 42.6s2.9-5.4 7.8-3.2-.8 8.4-.8 8.4 0-5.4-3.9-3.8 1.6.1 3.4 2-.5 6.6-3.4 6.8c0 0 1.4-3.3-.1-4.8s-1.1-.6-.7.6c.6 1.8 2 5.9-2.3 6.9s-2.8.4-3-.2.7-2.4.7-3.4c.1-2.1-.4-2.3-.8-2.1s1.9 4.3-1.1 7.3-.8.2-.9-.2-.4-.8-.6-1.3-.4-.2-.5 0c-.2 1.5.2 2.9-3.4 4.8 0 0-1.6.8-2.2 1.7s-.2 0-.2 0c-1.2-2.3-2.8-6.7 4.8-11.3 0 0-.9-1.4-7.1 6.4 0 0-3.2-2.6 4.5-7.5.3-.2.2-.6-.2-.6-1.5 0-2.6 1.9-4.2 4.3 0 0-4.8-6 5.6-7.4 0 0 .8 0 1.4-.7s.6-1.3-.3-1-3.6 1.2-6 3.1c0 0-2.1-4 4.4-8.5 1.4-1 3.2-1.4 4.9-1.1s3.6 1.5 4.2 4.7z"/><path fill="#15580c" d="M38.4 29.9s0-3.4 2-3 1 1.3 6.1 2c0 0 2.9 1.1 5.2 4.8 0 0-5-2.9-7.1-2s-.3.5 0 .6c.6.3 2.2.8 6.5 1.2s1.3.3 1.9.7.2.2.3.3c1.4 1.5 2.7 4 .6 4.6 0 0-8.1-6.3-8.8-4.7s1.5.9 3 1.6c2.3 1.2 4.9 2.8 6.1 3.2s.9.6.9 1.1-.6 1.8-2.8 2.6c0 0 0-4-5.5-5.6-.7-.2-1.1-.2-1.7 0 0 0 2.9 0 7 4.4.4.4.3 1.2 0 1.7S51 44.6 49.7 45c0 0 1.5-3.2-3.7-4.3 0 0 7.4 5.4-1 6.8 0 0-1-2.1-3.2-1.8s-2.8-.5-3.2-2.8.1-2.8.9-4 .4-.7.1-.9c-.7-.3-3.4 1.2-.7 6.2 0 0-4.6.3-4.9-3.8 0 0 .5-4 2.9-4.8 0 0 2.5-.9-.6-.6-3.1.3-2.5 6-2.5 6s-6.2-2.6-2.9-5.5c2.7-2.4 4.5-2.2 5.1-2.1s.1 0 0-.1c-.3-.5-1.7-1.6-7 1.2s-.8 0-1-.3c-.7-1.6-1.7-5.4 3-7.9 0 0 4.9-1.4 7.1 3.5zM29 7s-.9-6-5.3-5.4c-4.4.6-8.1 2.3-7.3 11.4 0 0 1.7-5.4 8.5-3.7 0 0 1.2.6-5.1 1.5-1.5.2-2.8 1.1-3.5 2.4s.9 4.6 3.4 6c0 0-.3-5.3 2.7-5.9s.5.3.3.5c-1.3 1.3-4.2 4.7-2.4 7.2 0 0 .6.9 2.2 1.1s1.3.3 1.3.3-2.7-5 1-6.7-1.9 2.5-1.7 5.2c.2 2.7 2.5 1.9 3.6 2.7 1.1.8 1.2 1.9 1.2 1.9s2.6-.6 4.5-1.9 1.5-3 0-4-1-1.2-.9-1.6c.3-1.3 1.9.1 2.7 1.3.6 1-1.1 3.3-1.4 3.4s.8-.4 2-1c2-1 2.1-3.8.2-4.9-1.5-.9-2.8-1.9-2.9-2.7-.3-2 7 3.6 3.9 6.6s1-.8 2.5-2 .9-2.7-.4-3.3-4.1-2-3.9-2.7c1-2.4 6.3 2.3 5.8 4.3s0 .1.1 0c.8-.7 2.9-2.9 1-4.7s-7-1.1-7.4-2.2 3-1.6 7.1 2c0 0 1-5-4.3-7s-7.7 1.7-7.7 1.7z"/><rect width="21.5" height="3.9" x="18.5" y="58.5" fill="#b8deff" rx="1.2" ry="1.2"/></svg>