<?xml version="1.0" encoding="UTF-8"?><svg id="a" xmlns="http://www.w3.org/2000/svg" width=".5in" height=".5in" viewBox="0 0 36.2 36"><path d="M22.4,7h-1.9v15.8c0,2.4-1.9,4.3-4.3,4.3s-4.3-1.9-4.3-4.3,1.7-4,3.8-4.3v-1.9c-3.2,.2-5.7,2.9-5.7,6.2s2.8,6.2,6.2,6.2,6.2-2.8,6.2-6.2V12.7c0-.4,.2-.7,.5-.9,.3-.2,.7-.1,1,.1,.7,.6,1.6,.7,2.3,.8v-1.9c-2.1,0-3.8-1.7-3.8-3.8Z" fill="#bbdcf4"/><path d="M18.1,.2C8.3,.2,.3,8.2,.3,18s8,17.8,17.8,17.8,17.8-8,17.8-17.8S27.9,.2,18.1,.2Zm10,13.5c0,.5-.4,.9-.8,.9,0,0-1.5,.2-3-.3v8.9c0,0,0,.1,0,.2-.3,4.2-3.8,7.5-8.1,7.5s-8.1-3.6-8.1-8.1,3.6-8.1,8.1-8.1,.2,0,.2,0c0,0,.2,0,.2,0,.5,0,1,.4,1,1v3.8c0,.5-.4,1-1,1s-.2,0-.2,0c0,0-.2,0-.2,0-1.3,0-2.4,1.1-2.4,2.4s1.1,2.4,2.4,2.4,2.4-1.1,2.4-2.4V6c0-.5,.4-1,1-1h3.8c.5,0,1,.4,1,1v1c0,1.1,.9,1.9,1.9,1.9h1c.5,0,1,.4,1,1v3.8Z" fill="#bbdcf4"/></svg>