<svg height=".5in" viewBox="0 0 36.2 36" width=".5in" xmlns="http://www.w3.org/2000/svg"><path d="m18.1.2c-9.8 0-17.8 8-17.8 17.8s8 17.8 17.8 17.8 17.8-8 17.8-17.8-8-17.8-17.8-17.8zm8.8 14.6v.5.2c0 6.6-5.4 11.8-12 11.7-2.3 0-4.5-.7-6.4-1.9h1c1.9 0 3.7-.6 5.2-1.8-1.8 0-3.4-1.2-3.9-2.9h.8c.4 0 .8 0 1.1-.2-2-.4-3.4-2.1-3.4-4.1.6.3 1.2.5 1.9.5-1.2-.8-1.9-2.1-1.9-3.5 0-.7.2-1.5.6-2.1 2.1 2.6 5.3 4.2 8.7 4.4-.4-1.5.1-3 1.2-4.1 1.7-1.6 4.4-1.5 5.9.2.9-.2 1.8-.5 2.7-1-.3 1-1 1.8-1.9 2.3.8-.1 1.6-.3 2.4-.7-.6.8-1.2 1.6-2 2.2z" fill="#bbdcf4"/></svg>