<?xml version="1.0" encoding="UTF-8"?><svg id="a" xmlns="http://www.w3.org/2000/svg" width=".5in" height=".5in" viewBox="0 0 36.2 36"><path d="M18.1,.2C8.3,.2,.3,8.2,.3,18s8,17.8,17.8,17.8,17.8-8,17.8-17.8S27.9,.2,18.1,.2Zm8.8,14.6v.5c0,0,0,.1,0,.2,0,6.6-5.4,11.8-12,11.7-2.3,0-4.5-.7-6.4-1.9,.3,0,.7,0,1,0,1.9,0,3.7-.6,5.2-1.8-1.8,0-3.4-1.2-3.9-2.9,.3,0,.5,0,.8,0,.4,0,.8,0,1.1-.2-2-.4-3.4-2.1-3.4-4.1h0c.6,.3,1.2,.5,1.9,.5-1.2-.8-1.9-2.1-1.9-3.5,0-.7,.2-1.5,.6-2.1,2.1,2.6,5.3,4.2,8.7,4.4-.4-1.5,.1-3,1.2-4.1,1.7-1.6,4.4-1.5,5.9,.2,.9-.2,1.8-.5,2.7-1-.3,1-1,1.8-1.9,2.3,.8-.1,1.6-.3,2.4-.7-.6,.8-1.2,1.6-2,2.2Z" fill="#bbdcf4"/></svg>